<?xml version="1.0" standalone="no"?>
<!DOCTYPE svg PUBLIC "-//W3C//DTD SVG 20010904//EN"
 "http://www.w3.org/TR/2001/REC-SVG-20010904/DTD/svg10.dtd">
<svg version="1.0" xmlns="http://www.w3.org/2000/svg"
 width="512.000000pt" height="512.000000pt" viewBox="0 0 512.000000 512.000000"
 preserveAspectRatio="xMidYMid meet">

<g transform="translate(0.000000,512.000000) scale(0.100000,-0.100000)"
fill="#000000" stroke="none">
<path d="M692 5100 c-196 -51 -336 -182 -406 -380 l-31 -85 0 -2075 0 -2075
31 -85 c71 -200 211 -329 410 -380 75 -19 114 -20 1218 -20 1253 0 1212 -1
1343 61 92 44 216 167 261 261 57 116 62 163 62 569 l0 366 -57 -13 c-32 -8
-99 -14 -149 -14 l-91 0 -6 -49 c-11 -93 -64 -170 -149 -216 l-53 -30 -1134
-3 c-990 -2 -1141 0 -1187 13 -68 20 -144 88 -173 154 l-21 50 2 1738 c3 1660
4 1740 21 1775 28 56 95 116 155 138 53 20 72 20 1195 18 l1142 -3 50 -27 c86
-45 141 -124 152 -219 l6 -49 91 0 c50 0 117 -6 149 -14 l57 -13 0 51 c0 76
-25 179 -62 254 -45 94 -169 217 -261 261 -131 63 -90 61 -1347 60 -1095 0
-1148 -1 -1218 -19z m1532 -4484 c18 -8 46 -30 61 -50 61 -80 35 -196 -55
-243 -42 -22 -51 -23 -307 -23 -287 0 -306 3 -354 56 -55 60 -60 134 -14 205
42 66 57 69 363 69 211 0 280 -3 306 -14z"/>
<path d="M3205 4351 c-93 -27 -182 -79 -267 -158 -42 -40 -87 -74 -100 -77
-13 -3 -68 -7 -123 -10 -177 -9 -289 -57 -406 -175 -57 -57 -85 -95 -112 -151
-41 -87 -67 -201 -67 -297 0 -78 -15 -110 -89 -186 -103 -105 -160 -241 -168
-397 -10 -176 45 -315 178 -451 84 -87 95 -108 86 -166 -8 -49 8 -170 33 -239
63 -180 214 -323 400 -378 30 -9 100 -19 155 -22 55 -3 110 -7 123 -10 12 -2
50 -30 83 -62 152 -143 288 -199 470 -190 146 7 266 64 407 193 l76 70 105 1
c180 2 315 57 436 178 119 121 175 261 175 443 l0 94 65 69 c89 94 141 179
172 277 23 75 25 95 21 196 -4 82 -11 127 -27 168 -30 78 -87 169 -144 229
-74 78 -87 105 -87 182 0 371 -257 626 -633 628 -38 0 -78 5 -90 12 -12 6 -56
43 -98 83 -82 76 -166 124 -264 150 -79 20 -233 19 -310 -4z m977 -920 c27
-24 33 -36 33 -70 0 -42 -2 -43 -515 -556 -506 -506 -516 -515 -555 -515 -38
0 -47 8 -332 292 -160 160 -294 301 -295 312 -6 34 10 80 35 98 12 10 40 18
62 18 38 0 46 -7 280 -240 132 -132 244 -240 248 -240 5 0 205 197 446 438
240 240 452 449 470 465 43 36 82 35 123 -2z"/>
</g>
</svg>
