<?xml version="1.0" encoding="utf-8"?>
<!-- Generator: Adobe Illustrator 26.5.0, SVG Export Plug-In . SVG Version: 6.00 Build 0)  -->
<svg version="1.1" xmlns="http://www.w3.org/2000/svg" xmlns:xlink="http://www.w3.org/1999/xlink" x="0px" y="0px"
	viewBox="0 0 281.25 179.25" style="enable-background:new 0 0 281.25 179.25;" xml:space="preserve">
<g id="레이어_10">
	<g>
		<path style = "fill:none;stroke:#D0D3DA;stroke-miterlimit:100;" d="M246.94,179.25V159H33.47v20.25"/>
		<path style = "fill:none;stroke:#D0D3DA;stroke-miterlimit:100;" d="M246.94,73.5V25.58c0-11.37-9.22-20.59-20.59-20.59H54.05c-11.37,0-20.59,9.22-20.59,20.59V73.5H246.94z"/>
	</g>
	<g>
		<path style = "fill:none;stroke:#D0D3DA;stroke-miterlimit:100;" d="M236.84,73.5V25.6c0-5.58-4.52-10.1-10.1-10.1H53.67c-5.58,0-10.1,4.52-10.1,10.1v47.9H236.84z"/>
		<path style = "fill:none;stroke:#D0D3DA;stroke-miterlimit:100;" d="M236.84,179.25V159H43.57v20.25"/>
	</g>
	<path style = "fill:none;stroke:#D0D3DA;stroke-miterlimit:100;" d="M264,159H16.41c-5.36,0-9.7-4.34-9.7-9.7V83.2c0-5.36,4.34-9.7,9.7-9.7H264c5.36,0,9.7,4.34,9.7,9.7v66.09
		C273.7,154.66,269.36,159,264,159z"/>
</g>
	<g id="Group_5_00000141416684435030670110000002678870552971453587_">
	<g id="Rectangle_2">
		<g>
			<circle style = "fill:#D0D3DA;" cx="140.2" cy="28.12" r="4.88"/>
		</g>
	</g>
		<g id="받는사람_00000120545106338245207310000016179437830863116197_">
		<g id="받는_사람_:">
		</g>
			<g id="cwmultigym99_x40_gmail.com">
			<g>
				<g>
					<path style = "fill:#1A1A1A;" d="M57.21,48.49h-4.12v-3.93h0.68V46h2.76v-1.43h0.68V48.49z M53.77,47.91h2.76v-1.34h-2.76V47.91z
						 M54.29,49.62h5.54v0.59h-4.84v2.03H60v0.59h-5.71V49.62z M59.8,46.29h1.4v0.59h-1.4v2.23h-0.7v-4.94h0.7V46.29z"/>
					<path style = "fill:#1A1A1A;" d="M70.12,48.67v0.58h-8.4v-0.58H70.12z M63.67,52.16h5.39v0.59h-6.1v-2.59h0.71V52.16z M63.71,46.87h5.22
						v0.59H63V44.5h0.71V46.87z"/>
					<path style = "fill:#1A1A1A;" d="M74.92,48.66c0.16-0.17,0.29-0.33,0.38-0.47c0.09-0.14,0.17-0.28,0.22-0.41c0.05-0.14,0.09-0.28,0.1-0.42
						c0.02-0.15,0.03-0.31,0.03-0.5v-2.04h0.73v2c0,0.18,0.01,0.34,0.02,0.48c0.01,0.14,0.04,0.27,0.08,0.39
						c0.04,0.12,0.1,0.25,0.18,0.37s0.19,0.25,0.32,0.4c0.2,0.22,0.45,0.47,0.74,0.75s0.62,0.58,1,0.9l-0.46,0.46
						c-0.32-0.28-0.62-0.56-0.89-0.81c-0.27-0.26-0.5-0.49-0.7-0.69c-0.15-0.15-0.29-0.3-0.42-0.44c-0.12-0.14-0.2-0.24-0.23-0.3
						h-0.01c-0.01,0.03-0.03,0.08-0.08,0.15c-0.05,0.07-0.1,0.14-0.18,0.22c-0.07,0.08-0.15,0.17-0.23,0.26
						c-0.08,0.09-0.16,0.18-0.23,0.25c-0.09,0.09-0.19,0.19-0.31,0.31c-0.12,0.12-0.25,0.25-0.4,0.38
						c-0.14,0.13-0.29,0.27-0.44,0.41s-0.3,0.27-0.45,0.39l-0.47-0.47c0.33-0.28,0.64-0.54,0.92-0.8
						C74.43,49.16,74.69,48.91,74.92,48.66z M80.4,47.41h1.53v0.6H80.4v4.85h-0.71v-8.68h0.71V47.41z"/>
					<path style = "fill:#1A1A1A;" d="M83.59,48.21c0.57,0,1.06,0,1.47,0c0.41,0,0.77-0.01,1.1-0.02s0.63-0.03,0.91-0.05s0.58-0.05,0.89-0.09
						l0.06,0.57c-0.29,0.04-0.6,0.07-0.91,0.09c-0.31,0.02-0.66,0.04-1.06,0.05c-0.4,0.01-0.85,0.02-1.36,0.03s-1.11,0.01-1.79,0.01
						V46.4h3.26v-1.23H82.9v-0.59h3.95v2.38h-3.26V48.21z M84.12,49.81h5.49v3.04h-5.49V49.81z M84.8,52.25h4.13V50.4H84.8V52.25z
						 M89.61,46.38h1.4v0.59h-1.4v2.32h-0.7v-5.12h0.7V46.38z"/>
					<path style = "fill:#1A1A1A;" d="M94.69,46.18h1.01v0.95h-1.01V46.18z M94.69,50.38h1.01v0.95h-1.01V50.38z"/>
				</g>
				<g>
					<path style = "fill:#69B7FF;" d="M107.55,45.84c0.38,0,0.71,0.04,1,0.13s0.54,0.21,0.77,0.38l-0.31,0.5c-0.25-0.16-0.5-0.28-0.73-0.34
						c-0.23-0.06-0.48-0.09-0.73-0.09c-0.48,0-0.86,0.15-1.13,0.45c-0.27,0.3-0.41,0.72-0.41,1.26v0.66c0,0.56,0.14,1,0.42,1.3
						c0.28,0.3,0.66,0.46,1.14,0.46c0.37,0,0.68-0.05,0.93-0.15c0.24-0.1,0.46-0.22,0.65-0.36l0.32,0.51
						c-0.1,0.07-0.21,0.14-0.33,0.21c-0.12,0.07-0.26,0.13-0.41,0.19s-0.33,0.1-0.52,0.13c-0.19,0.04-0.41,0.05-0.65,0.05
						c-0.71,0-1.26-0.2-1.65-0.61c-0.39-0.41-0.59-0.99-0.59-1.73v-0.64c0-0.37,0.06-0.7,0.17-0.99c0.11-0.29,0.26-0.53,0.46-0.72
						c0.19-0.19,0.43-0.34,0.7-0.44C106.92,45.89,107.22,45.84,107.55,45.84z"/>
					<path style = "fill:#69B7FF;" d="M111.38,51.06l-1.47-5.12h0.69l1.19,4.47l1.32-4.47h0.77l1.35,4.47l1.16-4.47h0.66l-1.44,5.12h-0.79
						l-1.34-4.4l-1.31,4.4H111.38z"/>
					<path style = "fill:#69B7FF;" d="M123.5,45.84c0.61,0,1.06,0.16,1.35,0.47c0.28,0.32,0.42,0.75,0.42,1.29v3.45h-0.68v-3.28
						c0-0.21-0.02-0.4-0.05-0.56c-0.04-0.16-0.1-0.31-0.19-0.42c-0.09-0.12-0.21-0.21-0.37-0.27c-0.16-0.06-0.35-0.09-0.6-0.09
						c-0.22,0-0.41,0.04-0.58,0.11c-0.17,0.08-0.31,0.17-0.42,0.29c-0.12,0.12-0.21,0.26-0.27,0.41s-0.1,0.3-0.1,0.45v3.36h-0.68
						v-3.28c0-0.21-0.02-0.4-0.05-0.56s-0.1-0.31-0.19-0.42c-0.09-0.12-0.21-0.21-0.37-0.27c-0.16-0.06-0.35-0.09-0.6-0.09
						c-0.22,0-0.42,0.04-0.59,0.12s-0.32,0.18-0.44,0.31c-0.12,0.13-0.21,0.27-0.27,0.42c-0.06,0.15-0.09,0.3-0.09,0.46v3.33h-0.68
						v-5.12h0.67v0.71c0.06-0.1,0.13-0.2,0.22-0.3c0.09-0.1,0.2-0.19,0.33-0.26c0.13-0.08,0.27-0.14,0.42-0.18s0.33-0.07,0.54-0.07
						c0.43,0,0.78,0.08,1.05,0.24c0.27,0.16,0.46,0.39,0.58,0.69c0.06-0.11,0.14-0.22,0.24-0.33c0.1-0.11,0.21-0.21,0.35-0.3
						c0.14-0.09,0.29-0.16,0.47-0.22C123.09,45.87,123.29,45.84,123.5,45.84z"/>
					<path style = "fill:#69B7FF;" d="M128.67,51.14c-0.61,0-1.08-0.16-1.4-0.48c-0.32-0.32-0.48-0.75-0.48-1.28v-3.43h0.68v3.27
						c0,0.18,0.02,0.36,0.06,0.52c0.04,0.16,0.1,0.3,0.19,0.43s0.23,0.22,0.4,0.29c0.17,0.07,0.39,0.1,0.66,0.1
						c0.23,0,0.43-0.04,0.62-0.11c0.19-0.08,0.35-0.18,0.49-0.3s0.24-0.26,0.32-0.41c0.08-0.15,0.12-0.3,0.12-0.46v-3.33H131v5.12
						h-0.67v-0.71c-0.13,0.2-0.33,0.38-0.6,0.54C129.45,51.05,129.1,51.14,128.67,51.14z"/>
					<path style = "fill:#69B7FF;" d="M132.61,43.88h0.68v7.18h-0.68V43.88z"/>
					<path style = "fill:#69B7FF;" d="M135.31,46.49h-0.92v-0.55h0.92v-1.32h0.68v1.32h1.49v0.55h-1.49v3.12c0,0.35,0.06,0.59,0.18,0.73
						c0.12,0.14,0.31,0.21,0.58,0.21c0.27,0,0.52-0.03,0.76-0.09l0.1,0.53c-0.11,0.04-0.25,0.07-0.42,0.09
						c-0.18,0.02-0.34,0.03-0.49,0.03c-0.23,0-0.44-0.03-0.61-0.08c-0.18-0.05-0.32-0.13-0.44-0.25c-0.11-0.11-0.2-0.26-0.25-0.45
						c-0.06-0.19-0.08-0.42-0.08-0.7V46.49z"/>
					<path style = "fill:#69B7FF;" d="M138.77,44.24h0.74v0.72h-0.74V44.24z M138.8,45.94h0.68v5.12h-0.68V45.94z"/>
					<path style = "fill:#69B7FF;" d="M144.61,50.29L144.61,50.29c-0.16,0.26-0.39,0.45-0.69,0.57c-0.3,0.12-0.6,0.18-0.91,0.18
						c-0.31,0-0.6-0.05-0.86-0.15s-0.49-0.24-0.68-0.43s-0.34-0.42-0.45-0.69c-0.11-0.27-0.16-0.58-0.16-0.93v-0.81
						c0-0.35,0.05-0.66,0.16-0.93c0.11-0.27,0.25-0.5,0.44-0.69c0.19-0.19,0.42-0.33,0.68-0.43c0.26-0.1,0.55-0.15,0.85-0.15
						c0.4,0,0.74,0.07,1,0.22c0.27,0.15,0.47,0.31,0.62,0.5v-0.63h0.67v5.04c0,0.73-0.2,1.28-0.6,1.65c-0.4,0.37-0.93,0.56-1.6,0.56
						c-0.38,0-0.72-0.05-1.01-0.14c-0.3-0.1-0.56-0.23-0.79-0.39l0.31-0.5c0.13,0.08,0.25,0.15,0.36,0.2s0.23,0.1,0.35,0.13
						c0.12,0.03,0.24,0.06,0.36,0.07c0.13,0.01,0.27,0.02,0.42,0.02c0.5,0,0.88-0.13,1.14-0.38c0.26-0.26,0.38-0.65,0.38-1.19V50.29
						z M141.54,48.75c0,0.55,0.14,0.98,0.41,1.27c0.27,0.3,0.64,0.45,1.09,0.45c0.22,0,0.42-0.03,0.62-0.08
						c0.19-0.05,0.36-0.14,0.49-0.25c0.14-0.11,0.25-0.25,0.34-0.42c0.08-0.17,0.12-0.37,0.12-0.59v-1.44c0-0.15-0.04-0.3-0.12-0.45
						s-0.19-0.29-0.33-0.41s-0.31-0.22-0.5-0.3c-0.19-0.08-0.4-0.11-0.63-0.11c-0.46,0-0.83,0.15-1.09,0.45s-0.41,0.72-0.41,1.27
						V48.75z"/>
					<path style = "fill:#69B7FF;" d="M146.97,45.94l1.67,4.4l1.64-4.4h0.7l-2.8,7.24l-0.58-0.2l0.69-1.83l-2.02-5.21H146.97z"/>
					<path style = "fill:#69B7FF;" d="M157.4,45.84c0.61,0,1.06,0.16,1.34,0.47c0.28,0.32,0.42,0.75,0.42,1.29v3.45h-0.68v-3.28
						c0-0.21-0.02-0.4-0.05-0.56c-0.04-0.16-0.1-0.31-0.19-0.42s-0.21-0.21-0.37-0.27c-0.16-0.06-0.35-0.09-0.59-0.09
						c-0.22,0-0.41,0.04-0.58,0.11c-0.17,0.08-0.31,0.17-0.42,0.29c-0.12,0.12-0.21,0.26-0.27,0.41c-0.06,0.15-0.1,0.3-0.11,0.45
						v3.36h-0.68v-3.28c0-0.21-0.02-0.4-0.06-0.56c-0.04-0.16-0.1-0.31-0.19-0.42s-0.21-0.21-0.37-0.27
						c-0.16-0.06-0.36-0.09-0.59-0.09c-0.22,0-0.42,0.04-0.59,0.12c-0.17,0.08-0.32,0.18-0.43,0.31c-0.12,0.13-0.21,0.27-0.26,0.42
						c-0.06,0.15-0.09,0.3-0.09,0.46v3.33h-0.68v-5.12h0.67v0.71c0.06-0.1,0.14-0.2,0.23-0.3c0.09-0.1,0.2-0.19,0.32-0.26
						c0.13-0.08,0.27-0.14,0.43-0.18c0.16-0.04,0.33-0.07,0.54-0.07c0.43,0,0.78,0.08,1.05,0.24c0.27,0.16,0.46,0.39,0.58,0.69
						c0.06-0.11,0.14-0.22,0.23-0.33s0.21-0.21,0.35-0.3c0.14-0.09,0.29-0.16,0.47-0.22C156.99,45.87,157.19,45.84,157.4,45.84z"/>
					<path style = "fill:#69B7FF;" d="M161.08,50.14c0.23,0.13,0.47,0.23,0.73,0.3c0.26,0.08,0.53,0.11,0.82,0.11c0.37,0,0.67-0.06,0.92-0.19
						c0.25-0.13,0.44-0.32,0.59-0.57s0.25-0.55,0.32-0.9c0.07-0.35,0.11-0.75,0.12-1.2c-0.05,0.1-0.13,0.21-0.23,0.32
						c-0.1,0.11-0.22,0.22-0.38,0.32s-0.33,0.18-0.53,0.25c-0.2,0.07-0.43,0.1-0.68,0.1c-0.31,0-0.6-0.05-0.88-0.15
						c-0.28-0.1-0.52-0.24-0.73-0.42c-0.21-0.18-0.38-0.41-0.5-0.67c-0.12-0.26-0.18-0.56-0.18-0.9v-0.23
						c0-0.34,0.06-0.64,0.18-0.91c0.12-0.27,0.29-0.51,0.5-0.7c0.21-0.19,0.46-0.34,0.75-0.45s0.6-0.16,0.94-0.16
						c0.33,0,0.65,0.06,0.94,0.17s0.56,0.28,0.78,0.51c0.22,0.23,0.39,0.52,0.52,0.87c0.13,0.35,0.2,0.76,0.2,1.24v0.29
						c0,0.75-0.05,1.39-0.17,1.9c-0.11,0.51-0.27,0.92-0.5,1.23c-0.22,0.31-0.5,0.53-0.83,0.66c-0.33,0.13-0.72,0.19-1.17,0.19
						c-0.33,0-0.64-0.04-0.95-0.12c-0.31-0.08-0.6-0.2-0.87-0.34L161.08,50.14z M164.51,46.45c0-0.25-0.04-0.49-0.12-0.7
						s-0.19-0.4-0.34-0.56s-0.32-0.28-0.53-0.36c-0.2-0.09-0.43-0.13-0.67-0.13s-0.47,0.04-0.68,0.11
						c-0.21,0.08-0.38,0.18-0.54,0.32s-0.27,0.31-0.35,0.52c-0.08,0.21-0.12,0.44-0.12,0.69v0.14c0,0.26,0.05,0.49,0.14,0.69
						c0.09,0.2,0.22,0.37,0.37,0.5s0.33,0.24,0.54,0.31c0.2,0.07,0.42,0.11,0.63,0.11c0.21,0,0.41-0.04,0.62-0.11
						c0.2-0.08,0.38-0.18,0.53-0.32c0.15-0.14,0.28-0.3,0.38-0.48s0.15-0.39,0.15-0.61V46.45z"/>
					<path style = "fill:#69B7FF;" d="M167.08,50.14c0.23,0.13,0.47,0.23,0.73,0.3c0.26,0.08,0.53,0.11,0.82,0.11c0.37,0,0.67-0.06,0.92-0.19
						c0.25-0.13,0.44-0.32,0.59-0.57s0.25-0.55,0.32-0.9c0.07-0.35,0.11-0.75,0.12-1.2c-0.05,0.1-0.13,0.21-0.23,0.32
						c-0.1,0.11-0.22,0.22-0.38,0.32s-0.33,0.18-0.53,0.25c-0.2,0.07-0.43,0.1-0.68,0.1c-0.31,0-0.6-0.05-0.88-0.15
						c-0.28-0.1-0.52-0.24-0.73-0.42c-0.21-0.18-0.38-0.41-0.5-0.67c-0.12-0.26-0.18-0.56-0.18-0.9v-0.23
						c0-0.34,0.06-0.64,0.18-0.91c0.12-0.27,0.29-0.51,0.5-0.7c0.21-0.19,0.46-0.34,0.75-0.45s0.6-0.16,0.94-0.16
						c0.33,0,0.65,0.06,0.94,0.17s0.56,0.28,0.78,0.51c0.22,0.23,0.39,0.52,0.52,0.87c0.13,0.35,0.2,0.76,0.2,1.24v0.29
						c0,0.75-0.05,1.39-0.17,1.9c-0.11,0.51-0.27,0.92-0.5,1.23c-0.22,0.31-0.5,0.53-0.83,0.66c-0.33,0.13-0.72,0.19-1.17,0.19
						c-0.33,0-0.64-0.04-0.95-0.12c-0.31-0.08-0.6-0.2-0.87-0.34L167.08,50.14z M170.51,46.45c0-0.25-0.04-0.49-0.12-0.7
						s-0.19-0.4-0.34-0.56s-0.32-0.28-0.53-0.36c-0.2-0.09-0.43-0.13-0.67-0.13s-0.47,0.04-0.68,0.11
						c-0.21,0.08-0.38,0.18-0.54,0.32s-0.27,0.31-0.35,0.52c-0.08,0.21-0.12,0.44-0.12,0.69v0.14c0,0.26,0.05,0.49,0.14,0.69
						c0.09,0.2,0.22,0.37,0.37,0.5s0.33,0.24,0.54,0.31c0.2,0.07,0.42,0.11,0.63,0.11c0.21,0,0.41-0.04,0.62-0.11
						c0.2-0.08,0.38-0.18,0.53-0.32c0.15-0.14,0.28-0.3,0.38-0.48s0.15-0.39,0.15-0.61V46.45z"/>
					<path style = "fill:#69B7FF;" d="M179.46,50.38c-0.13,0-0.27-0.02-0.4-0.05s-0.26-0.08-0.38-0.15c-0.12-0.07-0.23-0.15-0.32-0.25
						c-0.09-0.1-0.16-0.22-0.21-0.37h-0.01c-0.06,0.15-0.15,0.28-0.27,0.38c-0.12,0.1-0.25,0.18-0.39,0.25
						c-0.14,0.06-0.28,0.11-0.42,0.13s-0.28,0.04-0.39,0.04c-0.62,0-1.08-0.17-1.39-0.49c-0.3-0.33-0.46-0.78-0.46-1.36v-0.72
						c0-0.58,0.16-1.04,0.48-1.36c0.32-0.33,0.77-0.49,1.35-0.49c0.34,0,0.62,0.06,0.83,0.18s0.38,0.26,0.5,0.43V46h0.71v3.05
						c0,0.27,0.08,0.46,0.23,0.57s0.34,0.18,0.55,0.18c0.17,0,0.32-0.03,0.46-0.1s0.25-0.17,0.35-0.31c0.1-0.14,0.18-0.33,0.24-0.56
						c0.06-0.23,0.08-0.51,0.08-0.83v-0.1c0-0.54-0.08-1.02-0.25-1.45s-0.41-0.8-0.72-1.1c-0.32-0.3-0.72-0.53-1.21-0.69
						c-0.48-0.16-1.04-0.24-1.69-0.24c-0.55,0-1.04,0.08-1.49,0.25c-0.45,0.17-0.83,0.4-1.16,0.71s-0.57,0.68-0.74,1.13
						c-0.17,0.45-0.26,0.95-0.26,1.52v0.16c0,0.59,0.08,1.11,0.25,1.58c0.17,0.46,0.42,0.85,0.75,1.17
						c0.33,0.32,0.73,0.56,1.21,0.73c0.48,0.17,1.03,0.25,1.64,0.25c0.51,0,1.01-0.05,1.5-0.15c0.48-0.1,0.94-0.26,1.36-0.47
						l0.28,0.54c-0.42,0.22-0.89,0.38-1.42,0.5s-1.08,0.18-1.68,0.18c-0.7,0-1.33-0.1-1.89-0.3c-0.56-0.2-1.04-0.49-1.43-0.86
						s-0.69-0.83-0.9-1.36s-0.32-1.14-0.32-1.8v-0.18c0-0.6,0.1-1.16,0.3-1.67c0.2-0.51,0.49-0.95,0.86-1.33s0.82-0.66,1.35-0.87
						s1.13-0.31,1.8-0.31c0.73,0,1.38,0.1,1.95,0.3c0.56,0.2,1.04,0.48,1.42,0.83c0.38,0.35,0.67,0.78,0.87,1.28
						c0.2,0.5,0.29,1.04,0.29,1.64v0.12c0,0.27-0.03,0.54-0.08,0.83c-0.05,0.28-0.15,0.54-0.29,0.77c-0.14,0.23-0.32,0.42-0.55,0.58
						C180.11,50.31,179.81,50.38,179.46,50.38z M175.55,48.4c0,0.46,0.1,0.8,0.3,1.01c0.2,0.21,0.49,0.31,0.88,0.31
						c0.37,0,0.66-0.1,0.89-0.29c0.23-0.19,0.34-0.48,0.34-0.87v-0.95c0-0.13-0.03-0.25-0.08-0.38s-0.14-0.23-0.24-0.33
						s-0.23-0.18-0.38-0.24c-0.15-0.06-0.33-0.09-0.52-0.09c-0.39,0-0.68,0.11-0.88,0.32s-0.3,0.55-0.3,1.01V48.4z"/>
					<path style = "fill:#69B7FF;" d="M186.06,50.29L186.06,50.29c-0.16,0.26-0.39,0.45-0.68,0.57c-0.3,0.12-0.6,0.18-0.92,0.18
						s-0.6-0.05-0.86-0.15s-0.49-0.24-0.68-0.43s-0.34-0.42-0.45-0.69c-0.11-0.27-0.16-0.58-0.16-0.93v-0.81
						c0-0.35,0.05-0.66,0.16-0.93c0.11-0.27,0.25-0.5,0.45-0.69c0.19-0.19,0.42-0.33,0.68-0.43s0.55-0.15,0.86-0.15
						c0.4,0,0.73,0.07,1,0.22c0.27,0.15,0.47,0.31,0.61,0.5v-0.63h0.67v5.04c0,0.73-0.2,1.28-0.6,1.65c-0.4,0.37-0.93,0.56-1.6,0.56
						c-0.38,0-0.72-0.05-1.02-0.14c-0.3-0.1-0.56-0.23-0.78-0.39l0.31-0.5c0.13,0.08,0.25,0.15,0.36,0.2
						c0.11,0.05,0.23,0.1,0.34,0.13c0.12,0.03,0.24,0.06,0.37,0.07c0.13,0.01,0.27,0.02,0.42,0.02c0.5,0,0.88-0.13,1.13-0.38
						c0.26-0.26,0.38-0.65,0.38-1.19V50.29z M182.99,48.75c0,0.55,0.14,0.98,0.41,1.27c0.27,0.3,0.64,0.45,1.09,0.45
						c0.22,0,0.42-0.03,0.61-0.08c0.19-0.05,0.36-0.14,0.5-0.25c0.14-0.11,0.25-0.25,0.33-0.42c0.08-0.17,0.12-0.37,0.12-0.59v-1.44
						c0-0.15-0.04-0.3-0.12-0.45c-0.08-0.15-0.18-0.29-0.32-0.41c-0.14-0.12-0.31-0.22-0.5-0.3c-0.19-0.08-0.4-0.11-0.63-0.11
						c-0.46,0-0.83,0.15-1.1,0.45c-0.27,0.3-0.4,0.72-0.4,1.27V48.75z"/>
					<path style = "fill:#69B7FF;" d="M193.8,45.84c0.61,0,1.06,0.16,1.34,0.47c0.28,0.32,0.42,0.75,0.42,1.29v3.45h-0.68v-3.28
						c0-0.21-0.02-0.4-0.05-0.56c-0.04-0.16-0.1-0.31-0.19-0.42s-0.21-0.21-0.37-0.27c-0.16-0.06-0.35-0.09-0.59-0.09
						c-0.22,0-0.41,0.04-0.58,0.11c-0.17,0.08-0.31,0.17-0.42,0.29c-0.12,0.12-0.21,0.26-0.27,0.41c-0.06,0.15-0.1,0.3-0.11,0.45
						v3.36h-0.68v-3.28c0-0.21-0.02-0.4-0.06-0.56c-0.04-0.16-0.1-0.31-0.19-0.42s-0.21-0.21-0.37-0.27
						c-0.16-0.06-0.36-0.09-0.59-0.09c-0.22,0-0.42,0.04-0.59,0.12c-0.17,0.08-0.32,0.18-0.43,0.31c-0.12,0.13-0.21,0.27-0.26,0.42
						c-0.06,0.15-0.09,0.3-0.09,0.46v3.33h-0.68v-5.12h0.67v0.71c0.06-0.1,0.14-0.2,0.23-0.3c0.09-0.1,0.2-0.19,0.32-0.26
						c0.13-0.08,0.27-0.14,0.43-0.18c0.16-0.04,0.33-0.07,0.54-0.07c0.43,0,0.78,0.08,1.05,0.24c0.27,0.16,0.46,0.39,0.58,0.69
						c0.06-0.11,0.14-0.22,0.23-0.33s0.21-0.21,0.35-0.3c0.14-0.09,0.29-0.16,0.47-0.22C193.39,45.87,193.59,45.84,193.8,45.84z"/>
					<path style = "fill:#69B7FF;" d="M198.59,51.14c-0.51,0-0.93-0.13-1.25-0.39c-0.32-0.26-0.48-0.62-0.48-1.07v-0.21
						c0-0.42,0.16-0.76,0.48-1.02c0.32-0.26,0.79-0.39,1.42-0.39h1.52v-0.48c0-0.37-0.11-0.66-0.33-0.86
						c-0.22-0.2-0.54-0.3-0.96-0.3c-0.29,0-0.57,0.05-0.84,0.15s-0.52,0.22-0.75,0.38l-0.33-0.49c0.25-0.16,0.54-0.31,0.84-0.43
						c0.31-0.12,0.67-0.18,1.08-0.18c0.61,0,1.08,0.14,1.43,0.43c0.34,0.29,0.51,0.69,0.51,1.21v3.58h-0.66v-0.63h-0.01
						c-0.05,0.08-0.13,0.17-0.24,0.25s-0.22,0.16-0.37,0.23C199.37,51.06,199.01,51.14,198.59,51.14z M200.28,48.6h-1.51
						c-0.43,0-0.75,0.08-0.94,0.25c-0.19,0.16-0.29,0.38-0.29,0.65v0.15c0,0.16,0.03,0.31,0.1,0.42c0.07,0.12,0.16,0.21,0.27,0.29
						c0.11,0.08,0.23,0.13,0.37,0.17c0.14,0.03,0.27,0.05,0.42,0.05c0.21,0,0.41-0.03,0.58-0.08c0.17-0.05,0.34-0.12,0.5-0.22
						c0.15-0.09,0.27-0.2,0.36-0.33c0.1-0.13,0.15-0.29,0.15-0.49V48.6z"/>
					<path style = "fill:#69B7FF;" d="M202.46,44.24h0.74v0.72h-0.74V44.24z M202.49,45.94h0.68v5.12h-0.68V45.94z"/>
					<path style = "fill:#69B7FF;" d="M204.8,43.88h0.68v7.18h-0.68V43.88z"/>
					<path style = "fill:#69B7FF;" d="M207,50.38h1.01v0.95H207V50.38z"/>
					<path style = "fill:#69B7FF;" d="M211.51,45.84c0.38,0,0.71,0.04,1,0.13c0.29,0.09,0.54,0.21,0.77,0.38l-0.31,0.5
						c-0.25-0.16-0.5-0.28-0.73-0.34c-0.23-0.06-0.48-0.09-0.73-0.09c-0.48,0-0.86,0.15-1.13,0.45c-0.27,0.3-0.41,0.72-0.41,1.26
						v0.66c0,0.56,0.14,1,0.42,1.3c0.28,0.3,0.66,0.46,1.14,0.46c0.37,0,0.68-0.05,0.92-0.15c0.24-0.1,0.46-0.22,0.66-0.36
						l0.32,0.51c-0.1,0.07-0.21,0.14-0.33,0.21c-0.12,0.07-0.26,0.13-0.41,0.19s-0.33,0.1-0.52,0.13c-0.19,0.04-0.41,0.05-0.65,0.05
						c-0.71,0-1.26-0.2-1.65-0.61c-0.39-0.41-0.59-0.99-0.59-1.73v-0.64c0-0.37,0.06-0.7,0.17-0.99c0.11-0.29,0.26-0.53,0.46-0.72
						c0.19-0.19,0.43-0.34,0.7-0.44C210.87,45.89,211.18,45.84,211.51,45.84z"/>
					<path style = "fill:#69B7FF;" d="M216.51,45.84c0.73,0,1.29,0.2,1.69,0.61c0.4,0.41,0.6,0.98,0.6,1.72v0.64c0,0.74-0.2,1.31-0.6,1.72
						c-0.4,0.41-0.96,0.61-1.69,0.61s-1.29-0.2-1.69-0.61c-0.4-0.41-0.6-0.98-0.6-1.72v-0.64c0-0.75,0.2-1.32,0.6-1.72
						C215.22,46.05,215.78,45.84,216.51,45.84z M216.51,50.57c0.5,0,0.89-0.15,1.17-0.44c0.28-0.29,0.43-0.75,0.43-1.35v-0.56
						c0-0.61-0.14-1.06-0.43-1.35c-0.28-0.29-0.67-0.44-1.17-0.44s-0.89,0.15-1.17,0.44c-0.28,0.29-0.42,0.75-0.42,1.35v0.56
						c0,0.61,0.14,1.06,0.42,1.35C215.62,50.42,216.01,50.57,216.51,50.57z"/>
					<path style = "fill:#69B7FF;" d="M225.6,45.84c0.61,0,1.06,0.16,1.34,0.47c0.28,0.32,0.42,0.75,0.42,1.29v3.45h-0.68v-3.28
						c0-0.21-0.02-0.4-0.05-0.56c-0.04-0.16-0.1-0.31-0.19-0.42s-0.21-0.21-0.37-0.27c-0.16-0.06-0.35-0.09-0.59-0.09
						c-0.22,0-0.41,0.04-0.58,0.11c-0.17,0.08-0.31,0.17-0.42,0.29c-0.12,0.12-0.21,0.26-0.27,0.41c-0.06,0.15-0.1,0.3-0.11,0.45
						v3.36h-0.68v-3.28c0-0.21-0.02-0.4-0.06-0.56c-0.04-0.16-0.1-0.31-0.19-0.42s-0.21-0.21-0.37-0.27
						c-0.16-0.06-0.36-0.09-0.59-0.09c-0.22,0-0.42,0.04-0.59,0.12c-0.17,0.08-0.32,0.18-0.43,0.31c-0.12,0.13-0.21,0.27-0.26,0.42
						c-0.06,0.15-0.09,0.3-0.09,0.46v3.33h-0.68v-5.12h0.67v0.71c0.06-0.1,0.14-0.2,0.23-0.3c0.09-0.1,0.2-0.19,0.32-0.26
						c0.13-0.08,0.27-0.14,0.43-0.18c0.16-0.04,0.33-0.07,0.54-0.07c0.43,0,0.78,0.08,1.05,0.24c0.27,0.16,0.46,0.39,0.58,0.69
						c0.06-0.11,0.14-0.22,0.23-0.33s0.21-0.21,0.35-0.3c0.14-0.09,0.29-0.16,0.47-0.22C225.19,45.87,225.39,45.84,225.6,45.84z"/>
				</g>
			</g>
		</g>
	</g>
		<g id="메시지창_00000119084001051172558770000007979875589909268396_">
		<g id="Group_4_00000075132881784461529910000011226000553218123453_">
		</g>
			<g id="Group_1_00000080910785542109610250000004187879504933063308_">
			<g id="_x5B_인증문자_보내기_x5D_">
			</g>
				<g id="lsdfjwfliwj348dsl39hfosef3sejfldknsc9sn_fsdfsdfsfsdsgljlsknclis_00000139274581099172756860000000374553067335692197_">
				<g>
					<g id="Ellipse_1">
						<g>
							<circle style = "fill:#69B7FF;" cx="246.61" cy="127.5" r="16.5"/>
						</g>
					</g>
					<g>
						<path style = "fill-rule:evenodd;clip-rule:evenodd;fill:#FFFFFF;" d="M253.09,121.57l-14.34,5.19l4.78,2.77l4.21-4.21c0.45-0.44,1.17-0.44,1.61,0c0.44,0.45,0.44,1.17,0,1.61
							l-4.21,4.21l2.77,4.78L253.09,121.57L253.09,121.57z M253.46,119.02c1.36-0.49,2.68,0.83,2.19,2.19l-6.02,16.63
							c-0.49,1.36-2.36,1.53-3.09,0.27l-3.66-6.33l-6.33-3.66c-1.26-0.73-1.09-2.59,0.27-3.09L253.46,119.02z"/>
					</g>
					<g>
						<path style = "fill:#1A1A1A;" d="M20.48,98.18h-2.35v-8.89h2.35v0.59H18.8v7.71h1.68V98.18z"/>
						<path style = "fill:#1A1A1A;" d="M23.88,93.94c-0.34,0-0.65-0.06-0.93-0.17c-0.28-0.11-0.52-0.26-0.71-0.44
							c-0.19-0.18-0.34-0.38-0.45-0.61c-0.11-0.23-0.16-0.46-0.16-0.69v-0.57c0-0.23,0.05-0.46,0.16-0.69
							c0.11-0.23,0.26-0.43,0.45-0.61s0.43-0.33,0.71-0.44c0.28-0.11,0.59-0.17,0.93-0.17s0.65,0.06,0.93,0.17
							c0.28,0.11,0.52,0.26,0.71,0.44s0.34,0.38,0.45,0.61c0.11,0.23,0.16,0.46,0.16,0.69v0.57c0,0.23-0.05,0.46-0.16,0.69
							c-0.11,0.23-0.26,0.43-0.45,0.61c-0.19,0.18-0.43,0.33-0.71,0.44C24.53,93.88,24.22,93.94,23.88,93.94z M23.88,90.15
							c-0.23,0-0.45,0.04-0.64,0.11c-0.19,0.08-0.36,0.18-0.5,0.3c-0.14,0.13-0.24,0.27-0.32,0.44s-0.11,0.34-0.11,0.51v0.46
							c0,0.18,0.04,0.35,0.11,0.51c0.08,0.16,0.18,0.31,0.32,0.44c0.14,0.13,0.3,0.23,0.5,0.3c0.19,0.08,0.41,0.11,0.64,0.11
							s0.45-0.04,0.64-0.11c0.19-0.08,0.36-0.18,0.49-0.3c0.14-0.13,0.24-0.27,0.32-0.44c0.08-0.17,0.11-0.34,0.11-0.51v-0.46
							c0-0.18-0.04-0.35-0.11-0.51s-0.18-0.31-0.32-0.44c-0.14-0.13-0.3-0.23-0.49-0.3C24.32,90.19,24.11,90.15,23.88,90.15z
							 M23.88,97.16h5.11v0.59h-5.82v-2.84h0.71V97.16z M28.76,95.38h-0.7v-6.21h0.7V95.38z"/>
						<path style = "fill:#1A1A1A;" d="M38.71,93.31v0.58h-8.4v-0.58H38.71z M34.5,91.31c-0.05,0.11-0.19,0.22-0.4,0.33s-0.48,0.23-0.79,0.36
							c-0.29,0.11-0.59,0.23-0.92,0.35c-0.32,0.12-0.69,0.24-1.1,0.37l-0.28-0.52c0.91-0.29,1.6-0.53,2.09-0.73
							c0.21-0.08,0.38-0.16,0.51-0.24s0.24-0.16,0.32-0.25c0.08-0.08,0.14-0.18,0.17-0.28c0.03-0.1,0.05-0.21,0.05-0.34v-0.25h-2.74
							v-0.57h6.2v0.57h-2.75v0.25c0,0.13,0.02,0.24,0.04,0.34c0.03,0.1,0.08,0.19,0.17,0.28s0.19,0.17,0.32,0.25
							c0.13,0.08,0.3,0.16,0.51,0.24c0.25,0.1,0.55,0.22,0.92,0.34c0.36,0.13,0.75,0.25,1.17,0.38l-0.26,0.52
							c-0.41-0.13-0.79-0.25-1.13-0.37c-0.34-0.12-0.64-0.23-0.9-0.34c-0.31-0.12-0.58-0.24-0.79-0.36
							C34.69,91.52,34.56,91.41,34.5,91.31L34.5,91.31z M34.51,94.68c0.37,0,0.73,0.03,1.08,0.1s0.65,0.17,0.9,0.29
							c0.26,0.13,0.47,0.29,0.62,0.48c0.16,0.19,0.24,0.41,0.24,0.67v0.32c0,0.25-0.08,0.47-0.24,0.67
							c-0.16,0.19-0.36,0.35-0.62,0.48c-0.26,0.13-0.56,0.23-0.9,0.29s-0.7,0.1-1.08,0.1c-0.37,0-0.73-0.03-1.07-0.1
							c-0.34-0.07-0.65-0.16-0.91-0.29c-0.26-0.13-0.47-0.29-0.62-0.48c-0.16-0.19-0.23-0.41-0.23-0.67v-0.32
							c0-0.25,0.08-0.48,0.23-0.67s0.37-0.35,0.62-0.48c0.26-0.13,0.56-0.23,0.91-0.29C33.77,94.71,34.13,94.68,34.51,94.68z
							 M34.51,97.51c0.27,0,0.53-0.02,0.79-0.07c0.26-0.04,0.49-0.11,0.7-0.2c0.2-0.08,0.37-0.19,0.49-0.31
							c0.12-0.12,0.19-0.27,0.19-0.43v-0.25c0-0.16-0.06-0.3-0.19-0.43s-0.29-0.23-0.49-0.32c-0.2-0.08-0.44-0.15-0.7-0.19
							c-0.26-0.04-0.52-0.07-0.79-0.07c-0.27,0-0.54,0.02-0.79,0.07c-0.26,0.04-0.49,0.11-0.69,0.19c-0.2,0.09-0.37,0.19-0.49,0.32
							c-0.12,0.13-0.19,0.27-0.19,0.43v0.25c0,0.16,0.06,0.31,0.19,0.43c0.12,0.12,0.29,0.23,0.49,0.31c0.2,0.09,0.43,0.15,0.69,0.2
							C33.97,97.49,34.23,97.51,34.51,97.51z"/>
						<path style = "fill:#1A1A1A;" d="M47.81,93.6v0.57h-3.75V96h-0.7v-1.83h-3.95V93.6H47.81z M41.36,97.16h5.4v0.59h-6.11v-2.58h0.71V97.16z
							 M46.55,89.55v3.06h-5.88v-3.06H46.55z M41.36,92.03h4.5v-1.91h-4.5V92.03z"/>
						<path style = "fill:#1A1A1A;" d="M53.66,90.57h-2.07v1.36c0,0.18,0.01,0.34,0.02,0.47c0.01,0.13,0.04,0.26,0.08,0.38
							c0.04,0.12,0.1,0.24,0.18,0.36s0.18,0.25,0.31,0.39c0.19,0.21,0.44,0.46,0.73,0.73s0.62,0.57,1,0.88l-0.46,0.45
							c-0.35-0.3-0.65-0.58-0.9-0.82c-0.25-0.24-0.47-0.46-0.67-0.67c-0.15-0.15-0.28-0.29-0.4-0.42s-0.19-0.23-0.22-0.29h-0.01
							c-0.01,0.04-0.04,0.1-0.1,0.17c-0.05,0.07-0.11,0.15-0.18,0.23c-0.07,0.08-0.15,0.17-0.23,0.25
							c-0.08,0.08-0.16,0.17-0.23,0.24c-0.07,0.07-0.16,0.16-0.27,0.27c-0.11,0.11-0.24,0.23-0.38,0.36s-0.28,0.27-0.44,0.41
							c-0.16,0.14-0.31,0.27-0.46,0.39l-0.47-0.45c0.32-0.27,0.62-0.53,0.9-0.79c0.28-0.26,0.53-0.51,0.77-0.76
							c0.16-0.17,0.29-0.32,0.38-0.46c0.09-0.14,0.17-0.27,0.22-0.4c0.05-0.13,0.08-0.27,0.1-0.41c0.02-0.14,0.03-0.3,0.03-0.49
							v-1.41h-2.1v-0.59h4.88V90.57z M55.6,92.49h1.52v0.6H55.6v4.77h-0.71v-8.68h0.71V92.49z"/>
						<path style = "fill:#1A1A1A;" d="M67.27,89.84v4.33h-2.61v1.88h3.85v0.58h-8.4v-0.58h3.85v-1.88h-2.61v-4.33h0.69v1.56h4.54v-1.56H67.27z
							 M66.58,93.61v-1.63h-4.54v1.63H66.58z"/>
						<path style = "fill:#1A1A1A;" d="M69.71,89.99h0.71v4.82h0.64c0.33,0,0.71-0.01,1.12-0.04c0.41-0.02,0.84-0.08,1.29-0.15l0.08,0.6
							c-0.46,0.09-0.94,0.14-1.44,0.17s-0.96,0.03-1.39,0.03h-1.01V89.99z M74.89,92.1h1.43v-2.93h0.7v8.68h-0.7V92.7h-1.43v4.73
							h-0.7v-8.07h0.7V92.1z"/>
						<path style = "fill:#1A1A1A;" d="M78.78,95.34c0.77-0.42,1.38-0.78,1.83-1.08c0.45-0.3,0.8-0.58,1.03-0.85c0.23-0.26,0.38-0.53,0.45-0.79
							c0.07-0.27,0.11-0.58,0.11-0.93V90.6h-3.32v-0.61h4.01v1.71c0,0.29-0.02,0.55-0.05,0.79s-0.1,0.46-0.19,0.67
							s-0.23,0.41-0.41,0.61s-0.4,0.4-0.67,0.62c-0.28,0.21-0.61,0.44-1.01,0.69c-0.4,0.24-0.87,0.51-1.41,0.81L78.78,95.34z
							 M85.83,97.85h-0.71v-8.68h0.71V97.85z"/>
						<path style = "fill:#1A1A1A;" d="M87.44,97.59h1.68v-7.71h-1.68v-0.59h2.35v8.89h-2.35V97.59z"/>
					</g>
					<g id="lsdfjwfliwj348dsl39hfosef3sejfldknsc9sn_fsdfsdfsfsdsgljlsknclis">
						<rect x="18.13" y="105.56" style="fill:none;" width="203.17" height="38.44"/>
						<path style = "fill:#1A1A1A;" d="M18.93,105.93h0.68v7.18h-0.68V105.93z"/>
						<path style = "fill:#1A1A1A;" d="M22.92,112.61c0.44,0,0.77-0.08,1-0.25c0.23-0.16,0.34-0.36,0.34-0.58v-0.09c0-0.26-0.11-0.46-0.33-0.59
							c-0.22-0.13-0.6-0.25-1.12-0.34c-0.27-0.05-0.52-0.11-0.74-0.18c-0.22-0.07-0.41-0.16-0.56-0.27
							c-0.15-0.11-0.27-0.24-0.36-0.38c-0.09-0.15-0.13-0.33-0.13-0.54v-0.13c0-0.18,0.04-0.36,0.12-0.52
							c0.08-0.16,0.2-0.31,0.36-0.43c0.16-0.12,0.36-0.22,0.6-0.29c0.24-0.07,0.53-0.11,0.87-0.11c0.41,0,0.77,0.05,1.07,0.15
							c0.3,0.1,0.56,0.23,0.78,0.38l-0.31,0.48c-0.23-0.15-0.46-0.26-0.69-0.33c-0.23-0.08-0.52-0.11-0.87-0.11
							c-0.41,0-0.72,0.08-0.93,0.23s-0.32,0.34-0.32,0.57v0.1c0,0.22,0.12,0.4,0.35,0.52c0.24,0.13,0.57,0.23,1,0.3
							c0.67,0.12,1.15,0.29,1.44,0.51c0.3,0.22,0.44,0.54,0.44,0.95v0.14c0,0.2-0.05,0.39-0.15,0.56c-0.1,0.17-0.24,0.32-0.42,0.44
							c-0.18,0.12-0.38,0.22-0.62,0.29c-0.24,0.07-0.5,0.1-0.79,0.1c-0.44,0-0.83-0.06-1.17-0.17c-0.34-0.11-0.64-0.25-0.9-0.43
							l0.33-0.51c0.25,0.16,0.51,0.29,0.79,0.38C22.29,112.56,22.6,112.61,22.92,112.61z"/>
						<path style = "fill:#1A1A1A;" d="M29.68,112.43L29.68,112.43c-0.16,0.26-0.39,0.45-0.69,0.57c-0.3,0.12-0.61,0.18-0.92,0.18
							s-0.6-0.05-0.86-0.15c-0.26-0.1-0.49-0.24-0.68-0.43c-0.19-0.19-0.34-0.42-0.45-0.69c-0.11-0.27-0.16-0.58-0.16-0.93v-0.9
							c0-0.35,0.05-0.66,0.16-0.93c0.11-0.27,0.25-0.5,0.44-0.69s0.42-0.33,0.68-0.43c0.26-0.1,0.55-0.15,0.85-0.15
							c0.4,0,0.73,0.07,1,0.22c0.27,0.15,0.47,0.31,0.61,0.5v-2.69h0.68v7.18h-0.67V112.43z M26.6,110.9c0,0.55,0.14,0.98,0.41,1.27
							s0.64,0.45,1.09,0.45c0.22,0,0.42-0.03,0.61-0.08c0.19-0.05,0.35-0.14,0.5-0.25c0.14-0.11,0.25-0.25,0.33-0.42
							c0.08-0.17,0.12-0.37,0.12-0.59v-1.54c0-0.15-0.04-0.3-0.12-0.45c-0.08-0.15-0.19-0.28-0.32-0.41
							c-0.14-0.12-0.31-0.22-0.5-0.3s-0.4-0.11-0.63-0.11c-0.46,0-0.83,0.15-1.1,0.45s-0.4,0.72-0.4,1.27V110.9z"/>
						<path style = "fill:#1A1A1A;" d="M32.39,108.54h-0.92v-0.55h0.92v-0.65c0-0.28,0.03-0.51,0.09-0.7s0.15-0.34,0.27-0.45
							c0.12-0.11,0.26-0.2,0.43-0.25s0.37-0.08,0.6-0.08c0.15,0,0.31,0.01,0.49,0.03c0.18,0.02,0.32,0.05,0.42,0.09l-0.1,0.53
							c-0.24-0.06-0.49-0.09-0.76-0.09c-0.27,0-0.47,0.07-0.58,0.21c-0.12,0.14-0.18,0.38-0.18,0.73v0.62h1.49v0.55h-1.49v4.57
							h-0.68V108.54z"/>
						<path style = "fill:#1A1A1A;" d="M36.49,113.74c0,0.56-0.12,0.95-0.35,1.16c-0.24,0.22-0.58,0.33-1.04,0.33c-0.15,0-0.31-0.01-0.48-0.03
							s-0.32-0.05-0.43-0.09l0.1-0.53c0.24,0.06,0.49,0.09,0.76,0.09c0.27,0,0.47-0.07,0.58-0.22c0.12-0.15,0.17-0.39,0.17-0.74
							v-5.72h0.68V113.74z M35.78,106.29h0.74v0.72h-0.74V106.29z"/>
						<path style = "fill:#1A1A1A;" d="M38.99,113.11l-1.47-5.12h0.69l1.19,4.47l1.32-4.47h0.77l1.35,4.47l1.16-4.47h0.66l-1.44,5.12h-0.79
							l-1.34-4.4l-1.31,4.4H38.99z"/>
						<path style = "fill:#1A1A1A;" d="M46.1,108.54h-0.92v-0.55h0.92v-0.65c0-0.28,0.03-0.51,0.09-0.7s0.15-0.34,0.27-0.45
							c0.12-0.11,0.26-0.2,0.43-0.25s0.37-0.08,0.6-0.08c0.15,0,0.31,0.01,0.49,0.03c0.18,0.02,0.32,0.05,0.42,0.09l-0.1,0.53
							c-0.24-0.06-0.49-0.09-0.76-0.09c-0.27,0-0.47,0.07-0.58,0.21c-0.12,0.14-0.18,0.38-0.18,0.73v0.62h1.49v0.55h-1.49v4.57H46.1
							V108.54z"/>
						<path style = "fill:#1A1A1A;" d="M49.4,105.93h0.68v7.18H49.4V105.93z"/>
						<path style = "fill:#1A1A1A;" d="M51.68,106.29h0.74v0.72h-0.74V106.29z M51.71,107.99h0.68v5.12h-0.68V107.99z"/>
						<path style = "fill:#1A1A1A;" d="M54.89,113.11l-1.47-5.12h0.69l1.19,4.47l1.32-4.47h0.77l1.35,4.47l1.16-4.47h0.66l-1.44,5.12h-0.79
							l-1.34-4.4l-1.31,4.4H54.89z"/>
						<path style = "fill:#1A1A1A;" d="M62.36,113.74c0,0.56-0.12,0.95-0.35,1.16c-0.24,0.22-0.58,0.33-1.04,0.33c-0.15,0-0.31-0.01-0.48-0.03
							s-0.32-0.05-0.43-0.09l0.1-0.53c0.24,0.06,0.49,0.09,0.76,0.09c0.27,0,0.47-0.07,0.58-0.22c0.12-0.15,0.17-0.39,0.17-0.74
							v-5.72h0.68V113.74z M61.65,106.29h0.74v0.72h-0.74V106.29z"/>
						<path style = "fill:#1A1A1A;" d="M64.03,107.22c0.09-0.14,0.19-0.27,0.32-0.4c0.13-0.13,0.27-0.24,0.44-0.34c0.17-0.1,0.36-0.18,0.58-0.24
							c0.22-0.06,0.46-0.09,0.73-0.09c0.33,0,0.62,0.04,0.89,0.12c0.26,0.08,0.49,0.2,0.67,0.35c0.18,0.15,0.32,0.33,0.42,0.54
							s0.15,0.45,0.15,0.7v0.09c0,0.13-0.02,0.27-0.06,0.42c-0.04,0.15-0.11,0.29-0.2,0.43s-0.22,0.27-0.38,0.39
							c-0.16,0.12-0.36,0.22-0.6,0.29c0.5,0.08,0.88,0.27,1.13,0.56c0.26,0.29,0.39,0.64,0.39,1.04v0.14c0,0.25-0.04,0.49-0.13,0.72
							c-0.09,0.23-0.23,0.45-0.42,0.63s-0.44,0.34-0.75,0.45s-0.69,0.17-1.12,0.17c-0.42,0-0.83-0.06-1.22-0.19
							c-0.39-0.12-0.75-0.31-1.09-0.57l0.35-0.53c0.35,0.24,0.68,0.42,0.99,0.52s0.63,0.16,0.97,0.16c0.31,0,0.58-0.04,0.8-0.12
							c0.22-0.08,0.4-0.19,0.54-0.32c0.14-0.13,0.24-0.28,0.3-0.44c0.06-0.16,0.1-0.32,0.1-0.48v-0.12c0-0.26-0.06-0.47-0.17-0.64
							s-0.25-0.3-0.41-0.4c-0.16-0.1-0.34-0.17-0.54-0.21s-0.38-0.06-0.55-0.06h-0.81v-0.57h0.84c0.23,0,0.42-0.04,0.59-0.12
							s0.31-0.18,0.42-0.31c0.11-0.13,0.19-0.27,0.25-0.42s0.08-0.31,0.08-0.45v-0.08c0-0.34-0.12-0.61-0.38-0.81
							s-0.59-0.3-1.03-0.3c-0.29,0-0.56,0.05-0.83,0.17c-0.27,0.11-0.5,0.32-0.71,0.63L64.03,107.22z"/>
						<path style = "fill:#1A1A1A;" d="M73.89,108.82v2.16h1.06v0.61h-1.06v1.52h-0.7v-1.52h-3.61v-0.61l3.5-4.72h0.8l-3.49,4.72h2.8v-2.16
							H73.89z"/>
						<path style = "fill:#1A1A1A;" d="M75.87,111.21c0-0.38,0.12-0.71,0.36-1s0.56-0.49,0.96-0.6c-0.35-0.15-0.62-0.36-0.81-0.64
							c-0.19-0.27-0.28-0.59-0.28-0.95v-0.15c0-0.25,0.05-0.47,0.15-0.68s0.25-0.39,0.44-0.54c0.19-0.15,0.41-0.27,0.67-0.36
							c0.26-0.08,0.54-0.13,0.83-0.13s0.58,0.04,0.83,0.13c0.26,0.09,0.48,0.21,0.67,0.36c0.19,0.15,0.33,0.33,0.44,0.54
							c0.1,0.21,0.15,0.44,0.15,0.68v0.15c0,0.36-0.09,0.68-0.28,0.95c-0.19,0.27-0.46,0.48-0.81,0.64
							c0.19,0.06,0.37,0.14,0.53,0.24c0.16,0.1,0.3,0.22,0.42,0.37s0.21,0.3,0.28,0.47c0.07,0.17,0.1,0.35,0.1,0.54v0.16
							c0,0.27-0.05,0.52-0.17,0.75c-0.11,0.23-0.27,0.42-0.47,0.58c-0.2,0.16-0.45,0.29-0.73,0.38c-0.29,0.09-0.6,0.13-0.95,0.13
							s-0.66-0.04-0.95-0.13c-0.29-0.09-0.53-0.21-0.73-0.38c-0.2-0.16-0.36-0.36-0.47-0.58c-0.11-0.23-0.17-0.48-0.17-0.75V111.21z
							 M76.58,111.35c0,0.18,0.04,0.34,0.11,0.49s0.18,0.29,0.32,0.4c0.14,0.11,0.31,0.2,0.51,0.27c0.2,0.07,0.42,0.1,0.67,0.1
							s0.48-0.03,0.68-0.1c0.2-0.07,0.37-0.16,0.5-0.27c0.14-0.11,0.24-0.25,0.31-0.4s0.11-0.32,0.11-0.49v-0.11
							c0-0.2-0.04-0.39-0.12-0.55c-0.08-0.16-0.19-0.31-0.33-0.43c-0.14-0.12-0.31-0.21-0.51-0.28c-0.2-0.06-0.41-0.09-0.65-0.09
							c-0.23,0-0.45,0.03-0.65,0.09c-0.2,0.06-0.37,0.15-0.51,0.27c-0.14,0.12-0.26,0.26-0.34,0.42c-0.08,0.16-0.12,0.35-0.12,0.56
							V111.35z M76.78,108.01c0,0.18,0.03,0.36,0.1,0.52c0.07,0.17,0.16,0.31,0.29,0.43c0.12,0.12,0.27,0.21,0.44,0.29
							c0.17,0.07,0.37,0.1,0.58,0.1s0.41-0.04,0.58-0.1c0.17-0.07,0.32-0.17,0.44-0.29s0.22-0.26,0.29-0.43
							c0.07-0.17,0.1-0.34,0.1-0.52v-0.11c0-0.35-0.13-0.63-0.39-0.84c-0.26-0.21-0.6-0.31-1.02-0.31c-0.43,0-0.78,0.1-1.03,0.31
							c-0.25,0.21-0.38,0.49-0.38,0.84V108.01z"/>
						<path style = "fill:#1A1A1A;" d="M85.51,112.43L85.51,112.43c-0.16,0.26-0.39,0.45-0.69,0.57c-0.3,0.12-0.61,0.18-0.92,0.18
							s-0.6-0.05-0.86-0.15c-0.26-0.1-0.49-0.24-0.68-0.43c-0.19-0.19-0.34-0.42-0.45-0.69c-0.11-0.27-0.16-0.58-0.16-0.93v-0.9
							c0-0.35,0.05-0.66,0.16-0.93c0.11-0.27,0.25-0.5,0.44-0.69s0.42-0.33,0.68-0.43c0.26-0.1,0.55-0.15,0.85-0.15
							c0.4,0,0.73,0.07,1,0.22c0.27,0.15,0.47,0.31,0.61,0.5v-2.69h0.68v7.18h-0.67V112.43z M82.43,110.9
							c0,0.55,0.14,0.98,0.41,1.27s0.64,0.45,1.09,0.45c0.22,0,0.42-0.03,0.61-0.08c0.19-0.05,0.35-0.14,0.5-0.25
							c0.14-0.11,0.25-0.25,0.33-0.42c0.08-0.17,0.12-0.37,0.12-0.59v-1.54c0-0.15-0.04-0.3-0.12-0.45
							c-0.08-0.15-0.19-0.28-0.32-0.41c-0.14-0.12-0.31-0.22-0.5-0.3s-0.4-0.11-0.63-0.11c-0.46,0-0.83,0.15-1.1,0.45
							s-0.4,0.72-0.4,1.27V110.9z"/>
						<path style = "fill:#1A1A1A;" d="M89.49,112.61c0.44,0,0.77-0.08,1-0.25c0.23-0.16,0.34-0.36,0.34-0.58v-0.09c0-0.26-0.11-0.46-0.33-0.59
							c-0.22-0.13-0.6-0.25-1.12-0.34c-0.27-0.05-0.52-0.11-0.74-0.18c-0.22-0.07-0.41-0.16-0.56-0.27
							c-0.15-0.11-0.27-0.24-0.36-0.38c-0.09-0.15-0.13-0.33-0.13-0.54v-0.13c0-0.18,0.04-0.36,0.12-0.52
							c0.08-0.16,0.2-0.31,0.36-0.43c0.16-0.12,0.36-0.22,0.6-0.29c0.24-0.07,0.53-0.11,0.87-0.11c0.41,0,0.77,0.05,1.07,0.15
							c0.3,0.1,0.56,0.23,0.78,0.38l-0.31,0.48c-0.23-0.15-0.46-0.26-0.69-0.33c-0.23-0.08-0.52-0.11-0.87-0.11
							c-0.41,0-0.72,0.08-0.93,0.23s-0.32,0.34-0.32,0.57v0.1c0,0.22,0.12,0.4,0.35,0.52c0.24,0.13,0.57,0.23,1,0.3
							c0.67,0.12,1.15,0.29,1.44,0.51c0.3,0.22,0.44,0.54,0.44,0.95v0.14c0,0.2-0.05,0.39-0.15,0.56c-0.1,0.17-0.24,0.32-0.42,0.44
							c-0.18,0.12-0.38,0.22-0.62,0.29c-0.24,0.07-0.5,0.1-0.79,0.1c-0.44,0-0.83-0.06-1.17-0.17c-0.34-0.11-0.64-0.25-0.9-0.43
							l0.33-0.51c0.25,0.16,0.51,0.29,0.79,0.38C88.86,112.56,89.17,112.61,89.49,112.61z"/>
						<path style = "fill:#1A1A1A;" d="M92.73,105.93h0.68v7.18h-0.68V105.93z"/>
						<path style = "fill:#1A1A1A;" d="M95.05,107.22c0.09-0.14,0.19-0.27,0.32-0.4c0.13-0.13,0.27-0.24,0.44-0.34c0.17-0.1,0.36-0.18,0.58-0.24
							c0.22-0.06,0.46-0.09,0.73-0.09c0.33,0,0.62,0.04,0.89,0.12c0.26,0.08,0.49,0.2,0.67,0.35c0.18,0.15,0.32,0.33,0.42,0.54
							s0.15,0.45,0.15,0.7v0.09c0,0.13-0.02,0.27-0.06,0.42c-0.04,0.15-0.11,0.29-0.2,0.43s-0.22,0.27-0.38,0.39
							c-0.16,0.12-0.36,0.22-0.6,0.29c0.5,0.08,0.88,0.27,1.13,0.56c0.26,0.29,0.39,0.64,0.39,1.04v0.14c0,0.25-0.04,0.49-0.13,0.72
							c-0.09,0.23-0.23,0.45-0.42,0.63s-0.44,0.34-0.75,0.45s-0.69,0.17-1.12,0.17c-0.42,0-0.83-0.06-1.22-0.19
							c-0.39-0.12-0.75-0.31-1.09-0.57l0.35-0.53c0.35,0.24,0.68,0.42,0.99,0.52s0.63,0.16,0.97,0.16c0.31,0,0.58-0.04,0.8-0.12
							c0.22-0.08,0.4-0.19,0.54-0.32c0.14-0.13,0.24-0.28,0.3-0.44c0.06-0.16,0.1-0.32,0.1-0.48v-0.12c0-0.26-0.06-0.47-0.17-0.64
							s-0.25-0.3-0.41-0.4c-0.16-0.1-0.34-0.17-0.54-0.21s-0.38-0.06-0.55-0.06h-0.81v-0.57h0.84c0.23,0,0.42-0.04,0.59-0.12
							s0.31-0.18,0.42-0.31c0.11-0.13,0.19-0.27,0.25-0.42s0.08-0.31,0.08-0.45v-0.08c0-0.34-0.12-0.61-0.38-0.81
							s-0.59-0.3-1.03-0.3c-0.29,0-0.56,0.05-0.83,0.17c-0.27,0.11-0.5,0.32-0.71,0.63L95.05,107.22z"/>
						<path style = "fill:#1A1A1A;" d="M101.36,112.19c0.23,0.13,0.47,0.23,0.73,0.3c0.26,0.08,0.53,0.11,0.82,0.11c0.37,0,0.67-0.06,0.92-0.19
							c0.25-0.13,0.44-0.32,0.59-0.57s0.25-0.55,0.32-0.9c0.07-0.35,0.11-0.75,0.12-1.2c-0.05,0.1-0.13,0.21-0.23,0.32
							s-0.23,0.22-0.38,0.32c-0.15,0.1-0.33,0.18-0.53,0.25c-0.2,0.07-0.43,0.1-0.69,0.1c-0.31,0-0.6-0.05-0.88-0.15
							c-0.28-0.1-0.52-0.24-0.73-0.42s-0.38-0.41-0.5-0.67c-0.12-0.26-0.19-0.56-0.19-0.9v-0.23c0-0.34,0.06-0.64,0.18-0.91
							c0.12-0.27,0.28-0.5,0.49-0.7s0.46-0.34,0.75-0.45s0.6-0.16,0.94-0.16s0.65,0.06,0.95,0.17c0.3,0.11,0.55,0.28,0.77,0.51
							c0.22,0.23,0.4,0.52,0.52,0.87s0.19,0.76,0.19,1.24v0.29c0,0.75-0.05,1.39-0.17,1.9c-0.11,0.51-0.27,0.92-0.49,1.23
							c-0.22,0.31-0.5,0.53-0.83,0.66c-0.33,0.13-0.72,0.19-1.17,0.19c-0.33,0-0.64-0.04-0.95-0.12c-0.31-0.08-0.6-0.2-0.87-0.34
							L101.36,112.19z M104.79,108.5c0-0.25-0.04-0.49-0.12-0.7c-0.08-0.21-0.19-0.4-0.34-0.56c-0.15-0.16-0.32-0.28-0.52-0.36
							c-0.2-0.08-0.43-0.13-0.68-0.13s-0.47,0.04-0.68,0.11c-0.21,0.08-0.39,0.18-0.54,0.32c-0.15,0.14-0.27,0.31-0.35,0.52
							c-0.08,0.21-0.12,0.44-0.12,0.69v0.14c0,0.26,0.05,0.49,0.14,0.69c0.09,0.2,0.22,0.37,0.37,0.5c0.15,0.14,0.33,0.24,0.53,0.31
							c0.2,0.07,0.42,0.11,0.64,0.11c0.21,0,0.41-0.04,0.61-0.11c0.2-0.08,0.38-0.18,0.54-0.32s0.28-0.3,0.38-0.48
							s0.15-0.39,0.15-0.61V108.5z"/>
						<path style = "fill:#1A1A1A;" d="M109.33,107.89c0.62,0,1.1,0.16,1.44,0.48c0.34,0.32,0.5,0.75,0.5,1.29v3.45h-0.68v-3.29
							c0-0.18-0.02-0.36-0.06-0.52c-0.04-0.16-0.11-0.3-0.21-0.43c-0.1-0.12-0.24-0.22-0.42-0.29c-0.18-0.07-0.4-0.1-0.67-0.1
							c-0.23,0-0.44,0.04-0.62,0.12s-0.35,0.18-0.48,0.31c-0.13,0.13-0.24,0.27-0.31,0.42c-0.08,0.15-0.12,0.3-0.12,0.46v3.33h-0.68
							v-7.18h0.68v2.77c0.06-0.09,0.14-0.19,0.24-0.29c0.1-0.1,0.22-0.18,0.35-0.26c0.14-0.08,0.29-0.14,0.46-0.19
							C108.92,107.92,109.11,107.89,109.33,107.89z"/>
						<path style = "fill:#1A1A1A;" d="M113.27,108.54h-0.92v-0.55h0.92v-0.65c0-0.28,0.03-0.51,0.09-0.7s0.15-0.34,0.27-0.45
							c0.12-0.11,0.26-0.2,0.43-0.25s0.37-0.08,0.6-0.08c0.15,0,0.31,0.01,0.49,0.03c0.18,0.02,0.32,0.05,0.42,0.09l-0.1,0.53
							c-0.24-0.06-0.49-0.09-0.76-0.09c-0.27,0-0.47,0.07-0.58,0.21c-0.12,0.14-0.18,0.38-0.18,0.73v0.62h1.49v0.55h-1.49v4.57
							h-0.68V108.54z"/>
						<path style = "fill:#1A1A1A;" d="M118.53,107.89c0.73,0,1.29,0.2,1.69,0.61c0.4,0.41,0.6,0.98,0.6,1.72v0.64c0,0.74-0.2,1.31-0.6,1.72
							c-0.4,0.41-0.96,0.61-1.69,0.61s-1.29-0.2-1.69-0.61s-0.6-0.98-0.6-1.72v-0.64c0-0.75,0.2-1.32,0.6-1.72
							S117.8,107.89,118.53,107.89z M118.53,112.61c0.5,0,0.89-0.15,1.18-0.44c0.28-0.29,0.42-0.75,0.42-1.35v-0.56
							c0-0.61-0.14-1.06-0.42-1.35c-0.28-0.29-0.68-0.44-1.18-0.44s-0.89,0.15-1.17,0.44c-0.28,0.29-0.42,0.75-0.42,1.35v0.56
							c0,0.61,0.14,1.06,0.42,1.35C117.63,112.47,118.03,112.61,118.53,112.61z"/>
						<path style = "fill:#1A1A1A;" d="M123.88,112.61c0.44,0,0.77-0.08,1-0.25c0.23-0.16,0.34-0.36,0.34-0.58v-0.09c0-0.26-0.11-0.46-0.33-0.59
							c-0.22-0.13-0.6-0.25-1.12-0.34c-0.27-0.05-0.52-0.11-0.74-0.18c-0.22-0.07-0.41-0.16-0.56-0.27
							c-0.15-0.11-0.27-0.24-0.36-0.38c-0.09-0.15-0.13-0.33-0.13-0.54v-0.13c0-0.18,0.04-0.36,0.12-0.52
							c0.08-0.16,0.2-0.31,0.36-0.43c0.16-0.12,0.36-0.22,0.6-0.29c0.24-0.07,0.53-0.11,0.87-0.11c0.41,0,0.77,0.05,1.07,0.15
							c0.3,0.1,0.56,0.23,0.78,0.38l-0.31,0.48c-0.23-0.15-0.46-0.26-0.69-0.33c-0.23-0.08-0.52-0.11-0.87-0.11
							c-0.41,0-0.72,0.08-0.93,0.23s-0.32,0.34-0.32,0.57v0.1c0,0.22,0.12,0.4,0.35,0.52c0.24,0.13,0.57,0.23,1,0.3
							c0.67,0.12,1.15,0.29,1.44,0.51c0.3,0.22,0.44,0.54,0.44,0.95v0.14c0,0.2-0.05,0.39-0.15,0.56c-0.1,0.17-0.24,0.32-0.42,0.44
							c-0.18,0.12-0.38,0.22-0.62,0.29c-0.24,0.07-0.5,0.1-0.79,0.1c-0.44,0-0.83-0.06-1.17-0.17c-0.34-0.11-0.64-0.25-0.9-0.43
							l0.33-0.51c0.25,0.16,0.51,0.29,0.79,0.38C123.25,112.56,123.56,112.61,123.88,112.61z"/>
						<path style = "fill:#1A1A1A;" d="M131.11,112.61c-0.21,0.15-0.48,0.28-0.8,0.4c-0.32,0.12-0.71,0.18-1.16,0.18c-0.72,0-1.28-0.2-1.68-0.61
							c-0.4-0.41-0.6-0.99-0.6-1.73v-0.64c0-0.73,0.2-1.29,0.58-1.7c0.39-0.41,0.93-0.61,1.61-0.61c0.71,0,1.24,0.21,1.61,0.62
							c0.37,0.42,0.56,0.98,0.56,1.71v0.53h-3.68v0.09c0,0.57,0.14,1.01,0.43,1.32c0.29,0.31,0.68,0.46,1.18,0.46
							c0.36,0,0.68-0.05,0.95-0.15c0.27-0.1,0.51-0.22,0.7-0.35L131.11,112.61z M130.55,110.21v-0.09c0-0.54-0.13-0.95-0.39-1.23
							c-0.26-0.29-0.63-0.43-1.1-0.43c-0.48,0-0.85,0.15-1.12,0.45c-0.26,0.3-0.4,0.71-0.4,1.21v0.09H130.55z"/>
						<path style = "fill:#1A1A1A;" d="M133.01,108.54h-0.92v-0.55h0.92v-0.65c0-0.28,0.03-0.51,0.09-0.7s0.15-0.34,0.27-0.45
							c0.12-0.11,0.26-0.2,0.43-0.25s0.37-0.08,0.6-0.08c0.15,0,0.31,0.01,0.49,0.03c0.18,0.02,0.32,0.05,0.42,0.09l-0.1,0.53
							c-0.24-0.06-0.49-0.09-0.76-0.09c-0.27,0-0.47,0.07-0.58,0.21c-0.12,0.14-0.18,0.38-0.18,0.73v0.62h1.49v0.55h-1.49v4.57
							h-0.68V108.54z"/>
						<path style = "fill:#1A1A1A;" d="M136.35,107.22c0.09-0.14,0.19-0.27,0.32-0.4c0.13-0.13,0.27-0.24,0.44-0.34
							c0.17-0.1,0.36-0.18,0.58-0.24c0.22-0.06,0.46-0.09,0.73-0.09c0.33,0,0.62,0.04,0.89,0.12c0.26,0.08,0.49,0.2,0.67,0.35
							c0.18,0.15,0.32,0.33,0.42,0.54s0.15,0.45,0.15,0.7v0.09c0,0.13-0.02,0.27-0.06,0.42c-0.04,0.15-0.11,0.29-0.2,0.43
							s-0.22,0.27-0.38,0.39c-0.16,0.12-0.36,0.22-0.6,0.29c0.5,0.08,0.88,0.27,1.13,0.56c0.26,0.29,0.39,0.64,0.39,1.04v0.14
							c0,0.25-0.04,0.49-0.13,0.72c-0.09,0.23-0.23,0.45-0.42,0.63s-0.44,0.34-0.75,0.45s-0.69,0.17-1.12,0.17
							c-0.42,0-0.83-0.06-1.22-0.19c-0.39-0.12-0.75-0.31-1.09-0.57l0.35-0.53c0.35,0.24,0.68,0.42,0.99,0.52s0.63,0.16,0.97,0.16
							c0.31,0,0.58-0.04,0.8-0.12c0.22-0.08,0.4-0.19,0.54-0.32c0.14-0.13,0.24-0.28,0.3-0.44c0.06-0.16,0.1-0.32,0.1-0.48v-0.12
							c0-0.26-0.06-0.47-0.17-0.64s-0.25-0.3-0.41-0.4c-0.16-0.1-0.34-0.17-0.54-0.21s-0.38-0.06-0.55-0.06h-0.81v-0.57h0.84
							c0.23,0,0.42-0.04,0.59-0.12s0.31-0.18,0.42-0.31c0.11-0.13,0.19-0.27,0.25-0.42s0.08-0.31,0.08-0.45v-0.08
							c0-0.34-0.12-0.61-0.38-0.81s-0.59-0.3-1.03-0.3c-0.29,0-0.56,0.05-0.83,0.17c-0.27,0.11-0.5,0.32-0.71,0.63L136.35,107.22z"
						/>
						<path style = "fill:#1A1A1A;" d="M144.02,112.61c0.44,0,0.77-0.08,1-0.25c0.23-0.16,0.34-0.36,0.34-0.58v-0.09c0-0.26-0.11-0.46-0.33-0.59
							c-0.22-0.13-0.59-0.25-1.11-0.34c-0.27-0.05-0.52-0.11-0.74-0.18c-0.22-0.07-0.41-0.16-0.56-0.27
							c-0.15-0.11-0.27-0.24-0.36-0.38c-0.09-0.15-0.13-0.33-0.13-0.54v-0.13c0-0.18,0.04-0.36,0.12-0.52
							c0.08-0.16,0.2-0.31,0.36-0.43c0.16-0.12,0.36-0.22,0.61-0.29c0.24-0.07,0.53-0.11,0.86-0.11c0.41,0,0.77,0.05,1.07,0.15
							c0.3,0.1,0.56,0.23,0.78,0.38l-0.31,0.48c-0.23-0.15-0.46-0.26-0.69-0.33s-0.52-0.11-0.87-0.11c-0.41,0-0.72,0.08-0.93,0.23
							c-0.21,0.16-0.32,0.34-0.32,0.57v0.1c0,0.22,0.12,0.4,0.35,0.52c0.24,0.13,0.57,0.23,1,0.3c0.67,0.12,1.15,0.29,1.45,0.51
							s0.45,0.54,0.45,0.95v0.14c0,0.2-0.05,0.39-0.15,0.56c-0.1,0.17-0.24,0.32-0.42,0.44c-0.18,0.12-0.38,0.22-0.62,0.29
							s-0.5,0.1-0.79,0.1c-0.44,0-0.83-0.06-1.17-0.17c-0.34-0.11-0.64-0.25-0.89-0.43l0.33-0.51c0.25,0.16,0.51,0.29,0.8,0.38
							C143.39,112.56,143.7,112.61,144.02,112.61z"/>
						<path style = "fill:#1A1A1A;" d="M151.25,112.61c-0.21,0.15-0.48,0.28-0.8,0.4c-0.32,0.12-0.71,0.18-1.16,0.18c-0.72,0-1.28-0.2-1.68-0.61
							c-0.4-0.41-0.6-0.99-0.6-1.73v-0.64c0-0.73,0.2-1.29,0.58-1.7c0.39-0.41,0.92-0.61,1.61-0.61c0.71,0,1.25,0.21,1.62,0.62
							c0.37,0.42,0.55,0.98,0.55,1.71v0.53h-3.68v0.09c0,0.57,0.14,1.01,0.43,1.32c0.29,0.31,0.68,0.46,1.18,0.46
							c0.36,0,0.68-0.05,0.95-0.15c0.27-0.1,0.51-0.22,0.7-0.35L151.25,112.61z M150.69,110.21v-0.09c0-0.54-0.13-0.95-0.39-1.23
							s-0.63-0.43-1.1-0.43c-0.48,0-0.85,0.15-1.12,0.45s-0.39,0.71-0.39,1.21v0.09H150.69z"/>
						<path style = "fill:#1A1A1A;" d="M153.51,113.74c0,0.56-0.12,0.95-0.35,1.16c-0.24,0.22-0.58,0.33-1.04,0.33c-0.15,0-0.31-0.01-0.49-0.03
							c-0.18-0.02-0.32-0.05-0.42-0.09l0.1-0.53c0.24,0.06,0.49,0.09,0.76,0.09c0.27,0,0.47-0.07,0.58-0.22
							c0.12-0.15,0.17-0.39,0.17-0.74v-5.72h0.68V113.74z M152.8,106.29h0.74v0.72h-0.74V106.29z"/>
						<path style = "fill:#1A1A1A;" d="M155.58,108.54h-0.92v-0.55h0.92v-0.65c0-0.28,0.03-0.51,0.09-0.7c0.06-0.19,0.15-0.34,0.26-0.45
							c0.12-0.11,0.26-0.2,0.44-0.25c0.17-0.05,0.37-0.08,0.6-0.08c0.15,0,0.31,0.01,0.49,0.03c0.18,0.02,0.32,0.05,0.42,0.09
							l-0.1,0.53c-0.24-0.06-0.49-0.09-0.76-0.09c-0.27,0-0.47,0.07-0.58,0.21c-0.12,0.14-0.17,0.38-0.17,0.73v0.62h1.49v0.55h-1.49
							v4.57h-0.68V108.54z"/>
						<path style = "fill:#1A1A1A;" d="M158.88,105.93h0.68v7.18h-0.68V105.93z"/>
						<path style = "fill:#1A1A1A;" d="M164.68,112.43h-0.01c-0.15,0.26-0.38,0.45-0.68,0.57s-0.61,0.18-0.92,0.18s-0.6-0.05-0.86-0.15
							c-0.26-0.1-0.49-0.24-0.68-0.43c-0.19-0.19-0.34-0.42-0.45-0.69s-0.16-0.58-0.16-0.93v-0.9c0-0.35,0.05-0.66,0.16-0.93
							s0.25-0.5,0.45-0.69s0.42-0.33,0.68-0.43c0.26-0.1,0.55-0.15,0.86-0.15c0.4,0,0.73,0.07,1,0.22s0.47,0.31,0.61,0.5v-2.69h0.68
							v7.18h-0.67V112.43z M161.6,110.9c0,0.55,0.14,0.98,0.41,1.27c0.27,0.3,0.64,0.45,1.09,0.45c0.22,0,0.42-0.03,0.62-0.08
							c0.19-0.05,0.35-0.14,0.49-0.25c0.14-0.11,0.25-0.25,0.33-0.42c0.08-0.17,0.12-0.37,0.12-0.59v-1.54
							c0-0.15-0.04-0.3-0.11-0.45c-0.08-0.15-0.19-0.28-0.33-0.41c-0.14-0.12-0.31-0.22-0.5-0.3s-0.4-0.11-0.63-0.11
							c-0.46,0-0.83,0.15-1.1,0.45c-0.27,0.3-0.4,0.72-0.4,1.27V110.9z"/>
						<path style = "fill:#1A1A1A;" d="M168.98,109.95l2.35,3.15h-0.83l-2-2.73l-0.87,0.8v1.93h-0.68v-7.18h0.68v4.48l2.6-2.42h0.91
							L168.98,109.95z"/>
						<path style = "fill:#1A1A1A;" d="M174.67,107.89c0.62,0,1.1,0.16,1.43,0.48c0.34,0.32,0.5,0.75,0.5,1.29v3.45h-0.68v-3.29
							c0-0.18-0.02-0.36-0.06-0.52c-0.04-0.16-0.11-0.3-0.21-0.43c-0.1-0.12-0.24-0.22-0.42-0.29c-0.18-0.07-0.4-0.1-0.67-0.1
							c-0.23,0-0.43,0.04-0.62,0.12c-0.19,0.08-0.35,0.18-0.48,0.31c-0.13,0.13-0.24,0.27-0.32,0.42c-0.08,0.15-0.11,0.3-0.11,0.46
							v3.33h-0.68v-5.12h0.67v0.71c0.06-0.09,0.14-0.19,0.24-0.29c0.1-0.1,0.22-0.18,0.36-0.26c0.14-0.08,0.3-0.14,0.47-0.19
							C174.26,107.92,174.45,107.89,174.67,107.89z"/>
						<path style = "fill:#1A1A1A;" d="M179.88,112.61c0.44,0,0.77-0.08,1-0.25c0.23-0.16,0.34-0.36,0.34-0.58v-0.09c0-0.26-0.11-0.46-0.33-0.59
							c-0.22-0.13-0.59-0.25-1.11-0.34c-0.27-0.05-0.52-0.11-0.74-0.18c-0.22-0.07-0.41-0.16-0.56-0.27
							c-0.15-0.11-0.27-0.24-0.36-0.38c-0.09-0.15-0.13-0.33-0.13-0.54v-0.13c0-0.18,0.04-0.36,0.12-0.52
							c0.08-0.16,0.2-0.31,0.36-0.43c0.16-0.12,0.36-0.22,0.61-0.29c0.24-0.07,0.53-0.11,0.86-0.11c0.41,0,0.77,0.05,1.07,0.15
							c0.3,0.1,0.56,0.23,0.78,0.38l-0.31,0.48c-0.23-0.15-0.46-0.26-0.69-0.33s-0.52-0.11-0.87-0.11c-0.41,0-0.72,0.08-0.93,0.23
							c-0.21,0.16-0.32,0.34-0.32,0.57v0.1c0,0.22,0.12,0.4,0.35,0.52c0.24,0.13,0.57,0.23,1,0.3c0.67,0.12,1.15,0.29,1.45,0.51
							s0.45,0.54,0.45,0.95v0.14c0,0.2-0.05,0.39-0.15,0.56c-0.1,0.17-0.24,0.32-0.42,0.44c-0.18,0.12-0.38,0.22-0.62,0.29
							s-0.5,0.1-0.79,0.1c-0.44,0-0.83-0.06-1.17-0.17c-0.34-0.11-0.64-0.25-0.89-0.43l0.33-0.51c0.25,0.16,0.51,0.29,0.8,0.38
							C179.25,112.56,179.56,112.61,179.88,112.61z"/>
						<path style = "fill:#1A1A1A;" d="M185.1,107.89c0.38,0,0.71,0.04,1,0.13c0.29,0.08,0.54,0.21,0.77,0.38l-0.31,0.5
							c-0.25-0.16-0.5-0.28-0.73-0.34c-0.23-0.06-0.48-0.09-0.73-0.09c-0.48,0-0.86,0.15-1.13,0.45c-0.27,0.3-0.41,0.72-0.41,1.26
							v0.66c0,0.56,0.14,1,0.42,1.3c0.28,0.3,0.66,0.46,1.14,0.46c0.37,0,0.68-0.05,0.92-0.15c0.24-0.1,0.46-0.22,0.66-0.36
							l0.32,0.51c-0.1,0.07-0.21,0.14-0.33,0.21c-0.12,0.07-0.26,0.13-0.41,0.19s-0.33,0.1-0.52,0.13
							c-0.19,0.04-0.41,0.05-0.65,0.05c-0.71,0-1.26-0.2-1.65-0.61c-0.39-0.41-0.59-0.99-0.59-1.73v-0.64c0-0.37,0.06-0.7,0.17-0.99
							c0.11-0.29,0.26-0.53,0.46-0.72c0.19-0.19,0.43-0.34,0.7-0.44S184.76,107.89,185.1,107.89z"/>
						<path style = "fill:#1A1A1A;" d="M188.41,112.19c0.23,0.13,0.47,0.23,0.73,0.3c0.26,0.08,0.53,0.11,0.82,0.11c0.37,0,0.67-0.06,0.92-0.19
							c0.25-0.13,0.44-0.32,0.59-0.57s0.25-0.55,0.32-0.9c0.07-0.35,0.11-0.75,0.12-1.2c-0.05,0.1-0.13,0.21-0.23,0.32
							s-0.22,0.22-0.38,0.32c-0.15,0.1-0.33,0.18-0.53,0.25c-0.2,0.07-0.43,0.1-0.68,0.1c-0.31,0-0.6-0.05-0.88-0.15
							c-0.28-0.1-0.52-0.24-0.73-0.42s-0.38-0.41-0.5-0.67c-0.12-0.26-0.18-0.56-0.18-0.9v-0.23c0-0.34,0.06-0.64,0.18-0.91
							s0.29-0.5,0.5-0.7s0.46-0.34,0.75-0.45s0.6-0.16,0.94-0.16c0.33,0,0.65,0.06,0.94,0.17c0.3,0.11,0.56,0.28,0.78,0.51
							c0.22,0.23,0.39,0.52,0.52,0.87c0.13,0.35,0.2,0.76,0.2,1.24v0.29c0,0.75-0.05,1.39-0.17,1.9c-0.11,0.51-0.27,0.92-0.5,1.23
							c-0.22,0.31-0.5,0.53-0.83,0.66c-0.33,0.13-0.72,0.19-1.17,0.19c-0.33,0-0.64-0.04-0.95-0.12c-0.31-0.08-0.6-0.2-0.87-0.34
							L188.41,112.19z M191.84,108.5c0-0.25-0.04-0.49-0.12-0.7c-0.08-0.21-0.19-0.4-0.34-0.56s-0.32-0.28-0.53-0.36
							c-0.2-0.08-0.43-0.13-0.67-0.13s-0.47,0.04-0.68,0.11c-0.21,0.08-0.38,0.18-0.54,0.32c-0.15,0.14-0.27,0.31-0.35,0.52
							c-0.08,0.21-0.12,0.44-0.12,0.69v0.14c0,0.26,0.05,0.49,0.14,0.69c0.09,0.2,0.22,0.37,0.37,0.5c0.15,0.14,0.33,0.24,0.54,0.31
							c0.2,0.07,0.42,0.11,0.63,0.11c0.21,0,0.41-0.04,0.62-0.11c0.2-0.08,0.38-0.18,0.53-0.32s0.28-0.3,0.38-0.48
							s0.15-0.39,0.15-0.61V108.5z"/>
						<path style = "fill:#1A1A1A;" d="M195.77,112.61c0.44,0,0.77-0.08,1-0.25c0.23-0.16,0.34-0.36,0.34-0.58v-0.09c0-0.26-0.11-0.46-0.33-0.59
							c-0.22-0.13-0.59-0.25-1.11-0.34c-0.27-0.05-0.52-0.11-0.74-0.18c-0.22-0.07-0.41-0.16-0.56-0.27
							c-0.15-0.11-0.27-0.24-0.36-0.38c-0.09-0.15-0.13-0.33-0.13-0.54v-0.13c0-0.18,0.04-0.36,0.12-0.52
							c0.08-0.16,0.2-0.31,0.36-0.43c0.16-0.12,0.36-0.22,0.61-0.29c0.24-0.07,0.53-0.11,0.86-0.11c0.41,0,0.77,0.05,1.07,0.15
							c0.3,0.1,0.56,0.23,0.78,0.38l-0.31,0.48c-0.23-0.15-0.46-0.26-0.69-0.33s-0.52-0.11-0.87-0.11c-0.41,0-0.72,0.08-0.93,0.23
							c-0.21,0.16-0.32,0.34-0.32,0.57v0.1c0,0.22,0.12,0.4,0.35,0.52c0.24,0.13,0.57,0.23,1,0.3c0.67,0.12,1.15,0.29,1.45,0.51
							s0.45,0.54,0.45,0.95v0.14c0,0.2-0.05,0.39-0.15,0.56c-0.1,0.17-0.24,0.32-0.42,0.44c-0.18,0.12-0.38,0.22-0.62,0.29
							s-0.5,0.1-0.79,0.1c-0.44,0-0.83-0.06-1.17-0.17c-0.34-0.11-0.64-0.25-0.89-0.43l0.33-0.51c0.25,0.16,0.51,0.29,0.8,0.38
							C195.14,112.56,195.45,112.61,195.77,112.61z"/>
						<path style = "fill:#1A1A1A;" d="M201.33,107.89c0.62,0,1.1,0.16,1.43,0.48c0.34,0.32,0.5,0.75,0.5,1.29v3.45h-0.68v-3.29
							c0-0.18-0.02-0.36-0.06-0.52c-0.04-0.16-0.11-0.3-0.21-0.43c-0.1-0.12-0.24-0.22-0.42-0.29c-0.18-0.07-0.4-0.1-0.67-0.1
							c-0.23,0-0.43,0.04-0.62,0.12c-0.19,0.08-0.35,0.18-0.48,0.31c-0.13,0.13-0.24,0.27-0.32,0.42c-0.08,0.15-0.11,0.3-0.11,0.46
							v3.33h-0.68v-5.12h0.67v0.71c0.06-0.09,0.14-0.19,0.24-0.29c0.1-0.1,0.22-0.18,0.36-0.26c0.14-0.08,0.3-0.14,0.47-0.19
							C200.92,107.92,201.11,107.89,201.33,107.89z"/>
						<path style = "fill:#1A1A1A;" d="M19.37,122.54h-0.92v-0.55h0.92v-0.65c0-0.28,0.03-0.51,0.09-0.7s0.15-0.34,0.27-0.45
							c0.12-0.11,0.26-0.2,0.43-0.25s0.37-0.08,0.6-0.08c0.15,0,0.31,0.01,0.49,0.03c0.18,0.02,0.32,0.05,0.42,0.09l-0.1,0.53
							c-0.24-0.06-0.49-0.09-0.76-0.09c-0.27,0-0.47,0.07-0.58,0.21c-0.12,0.14-0.18,0.38-0.18,0.73v0.62h1.49v0.55h-1.49v4.57
							h-0.68V122.54z"/>
						<path style = "fill:#1A1A1A;" d="M24.38,126.61c0.44,0,0.77-0.08,1-0.25c0.23-0.16,0.34-0.36,0.34-0.58v-0.09c0-0.26-0.11-0.46-0.33-0.59
							c-0.22-0.13-0.6-0.25-1.12-0.34c-0.27-0.05-0.52-0.11-0.74-0.18c-0.22-0.07-0.41-0.16-0.56-0.27
							c-0.15-0.11-0.27-0.24-0.36-0.38c-0.09-0.15-0.13-0.33-0.13-0.54v-0.13c0-0.18,0.04-0.36,0.12-0.52
							c0.08-0.16,0.2-0.31,0.36-0.43c0.16-0.12,0.36-0.22,0.6-0.29c0.24-0.07,0.53-0.11,0.87-0.11c0.41,0,0.77,0.05,1.07,0.15
							c0.3,0.1,0.56,0.23,0.78,0.38l-0.31,0.48c-0.23-0.15-0.46-0.26-0.69-0.33c-0.23-0.08-0.52-0.11-0.87-0.11
							c-0.41,0-0.72,0.08-0.93,0.23s-0.32,0.34-0.32,0.57v0.1c0,0.22,0.12,0.4,0.35,0.52c0.24,0.13,0.57,0.23,1,0.3
							c0.67,0.12,1.15,0.29,1.44,0.51c0.3,0.22,0.44,0.54,0.44,0.95v0.14c0,0.2-0.05,0.39-0.15,0.56c-0.1,0.17-0.24,0.32-0.42,0.44
							c-0.18,0.12-0.38,0.22-0.62,0.29c-0.24,0.07-0.5,0.1-0.79,0.1c-0.44,0-0.83-0.06-1.17-0.17c-0.34-0.11-0.64-0.25-0.9-0.43
							l0.33-0.51c0.25,0.16,0.51,0.29,0.79,0.38C23.75,126.56,24.06,126.61,24.38,126.61z"/>
						<path style = "fill:#1A1A1A;" d="M31.14,126.43L31.14,126.43c-0.16,0.26-0.39,0.45-0.69,0.57c-0.3,0.12-0.61,0.18-0.92,0.18
							s-0.6-0.05-0.86-0.15c-0.26-0.1-0.49-0.24-0.68-0.43c-0.19-0.19-0.34-0.42-0.45-0.69c-0.11-0.27-0.16-0.58-0.16-0.93v-0.9
							c0-0.35,0.05-0.66,0.16-0.93c0.11-0.27,0.25-0.5,0.44-0.69s0.42-0.33,0.68-0.43c0.26-0.1,0.55-0.15,0.85-0.15
							c0.4,0,0.73,0.07,1,0.22c0.27,0.15,0.47,0.31,0.61,0.5v-2.69h0.68v7.18h-0.67V126.43z M28.06,124.9
							c0,0.55,0.14,0.98,0.41,1.27s0.64,0.45,1.09,0.45c0.22,0,0.42-0.03,0.61-0.08c0.19-0.05,0.35-0.14,0.5-0.25
							c0.14-0.11,0.25-0.25,0.33-0.42c0.08-0.17,0.12-0.37,0.12-0.59v-1.54c0-0.15-0.04-0.3-0.12-0.45
							c-0.08-0.15-0.19-0.28-0.32-0.41c-0.14-0.12-0.31-0.22-0.5-0.3s-0.4-0.11-0.63-0.11c-0.46,0-0.83,0.15-1.1,0.45
							s-0.4,0.72-0.4,1.27V124.9z"/>
						<path style = "fill:#1A1A1A;" d="M33.85,122.54h-0.92v-0.55h0.92v-0.65c0-0.28,0.03-0.51,0.09-0.7s0.15-0.34,0.27-0.45
							c0.12-0.11,0.26-0.2,0.43-0.25s0.37-0.08,0.6-0.08c0.15,0,0.31,0.01,0.49,0.03c0.18,0.02,0.32,0.05,0.42,0.09l-0.1,0.53
							c-0.24-0.06-0.49-0.09-0.76-0.09c-0.27,0-0.47,0.07-0.58,0.21c-0.12,0.14-0.18,0.38-0.18,0.73v0.62h1.49v0.55h-1.49v4.57
							h-0.68V122.54z"/>
						<path style = "fill:#1A1A1A;" d="M38.86,126.61c0.44,0,0.77-0.08,1-0.25c0.23-0.16,0.34-0.36,0.34-0.58v-0.09c0-0.26-0.11-0.46-0.33-0.59
							c-0.22-0.13-0.6-0.25-1.12-0.34c-0.27-0.05-0.52-0.11-0.74-0.18c-0.22-0.07-0.41-0.16-0.56-0.27
							c-0.15-0.11-0.27-0.24-0.36-0.38c-0.09-0.15-0.13-0.33-0.13-0.54v-0.13c0-0.18,0.04-0.36,0.12-0.52
							c0.08-0.16,0.2-0.31,0.36-0.43c0.16-0.12,0.36-0.22,0.6-0.29c0.24-0.07,0.53-0.11,0.87-0.11c0.41,0,0.77,0.05,1.07,0.15
							c0.3,0.1,0.56,0.23,0.78,0.38l-0.31,0.48c-0.23-0.15-0.46-0.26-0.69-0.33c-0.23-0.08-0.52-0.11-0.87-0.11
							c-0.41,0-0.72,0.08-0.93,0.23s-0.32,0.34-0.32,0.57v0.1c0,0.22,0.12,0.4,0.35,0.52c0.24,0.13,0.57,0.23,1,0.3
							c0.67,0.12,1.15,0.29,1.44,0.51c0.3,0.22,0.44,0.54,0.44,0.95v0.14c0,0.2-0.05,0.39-0.15,0.56c-0.1,0.17-0.24,0.32-0.42,0.44
							c-0.18,0.12-0.38,0.22-0.62,0.29c-0.24,0.07-0.5,0.1-0.79,0.1c-0.44,0-0.83-0.06-1.17-0.17c-0.34-0.11-0.64-0.25-0.9-0.43
							l0.33-0.51c0.25,0.16,0.51,0.29,0.79,0.38C38.23,126.56,38.54,126.61,38.86,126.61z"/>
						<path style = "fill:#1A1A1A;" d="M45.62,126.43L45.62,126.43c-0.16,0.26-0.39,0.45-0.69,0.57c-0.3,0.12-0.61,0.18-0.92,0.18
							s-0.6-0.05-0.86-0.15c-0.26-0.1-0.49-0.24-0.68-0.43c-0.19-0.19-0.34-0.42-0.45-0.69c-0.11-0.27-0.16-0.58-0.16-0.93v-0.9
							c0-0.35,0.05-0.66,0.16-0.93c0.11-0.27,0.25-0.5,0.44-0.69s0.42-0.33,0.68-0.43c0.26-0.1,0.55-0.15,0.85-0.15
							c0.4,0,0.73,0.07,1,0.22c0.27,0.15,0.47,0.31,0.61,0.5v-2.69h0.68v7.18h-0.67V126.43z M42.54,124.9
							c0,0.55,0.14,0.98,0.41,1.27s0.64,0.45,1.09,0.45c0.22,0,0.42-0.03,0.61-0.08c0.19-0.05,0.35-0.14,0.5-0.25
							c0.14-0.11,0.25-0.25,0.33-0.42c0.08-0.17,0.12-0.37,0.12-0.59v-1.54c0-0.15-0.04-0.3-0.12-0.45
							c-0.08-0.15-0.19-0.28-0.32-0.41c-0.14-0.12-0.31-0.22-0.5-0.3s-0.4-0.11-0.63-0.11c-0.46,0-0.83,0.15-1.1,0.45
							s-0.4,0.72-0.4,1.27V124.9z"/>
						<path style = "fill:#1A1A1A;" d="M48.33,122.54h-0.92v-0.55h0.92v-0.65c0-0.28,0.03-0.51,0.09-0.7s0.15-0.34,0.27-0.45
							c0.12-0.11,0.26-0.2,0.43-0.25s0.37-0.08,0.6-0.08c0.15,0,0.31,0.01,0.49,0.03c0.18,0.02,0.32,0.05,0.42,0.09l-0.1,0.53
							c-0.24-0.06-0.49-0.09-0.76-0.09c-0.27,0-0.47,0.07-0.58,0.21c-0.12,0.14-0.18,0.38-0.18,0.73v0.62h1.49v0.55h-1.49v4.57
							h-0.68V122.54z"/>
						<path style = "fill:#1A1A1A;" d="M53.34,126.61c0.44,0,0.77-0.08,1-0.25c0.23-0.16,0.34-0.36,0.34-0.58v-0.09c0-0.26-0.11-0.46-0.33-0.59
							c-0.22-0.13-0.6-0.25-1.12-0.34c-0.27-0.05-0.52-0.11-0.74-0.18c-0.22-0.07-0.41-0.16-0.56-0.27
							c-0.15-0.11-0.27-0.24-0.36-0.38c-0.09-0.15-0.13-0.33-0.13-0.54v-0.13c0-0.18,0.04-0.36,0.12-0.52
							c0.08-0.16,0.2-0.31,0.36-0.43c0.16-0.12,0.36-0.22,0.6-0.29c0.24-0.07,0.53-0.11,0.87-0.11c0.41,0,0.77,0.05,1.07,0.15
							c0.3,0.1,0.56,0.23,0.78,0.38l-0.31,0.48c-0.23-0.15-0.46-0.26-0.69-0.33c-0.23-0.08-0.52-0.11-0.87-0.11
							c-0.41,0-0.72,0.08-0.93,0.23s-0.32,0.34-0.32,0.57v0.1c0,0.22,0.12,0.4,0.35,0.52c0.24,0.13,0.57,0.23,1,0.3
							c0.67,0.12,1.15,0.29,1.44,0.51c0.3,0.22,0.44,0.54,0.44,0.95v0.14c0,0.2-0.05,0.39-0.15,0.56c-0.1,0.17-0.24,0.32-0.42,0.44
							c-0.18,0.12-0.38,0.22-0.62,0.29c-0.24,0.07-0.5,0.1-0.79,0.1c-0.44,0-0.83-0.06-1.17-0.17c-0.34-0.11-0.64-0.25-0.9-0.43
							l0.33-0.51c0.25,0.16,0.51,0.29,0.79,0.38C52.71,126.56,53.02,126.61,53.34,126.61z"/>
						<path style = "fill:#1A1A1A;" d="M57.02,122.54H56.1v-0.55h0.92v-0.65c0-0.28,0.03-0.51,0.09-0.7s0.15-0.34,0.27-0.45
							c0.12-0.11,0.26-0.2,0.43-0.25s0.37-0.08,0.6-0.08c0.15,0,0.31,0.01,0.49,0.03c0.18,0.02,0.32,0.05,0.42,0.09l-0.1,0.53
							c-0.24-0.06-0.49-0.09-0.76-0.09c-0.27,0-0.47,0.07-0.58,0.21c-0.12,0.14-0.18,0.38-0.18,0.73v0.62h1.49v0.55H57.7v4.57h-0.68
							V122.54z"/>
						<path style = "fill:#1A1A1A;" d="M62.03,126.61c0.44,0,0.77-0.08,1-0.25c0.23-0.16,0.34-0.36,0.34-0.58v-0.09c0-0.26-0.11-0.46-0.33-0.59
							c-0.22-0.13-0.6-0.25-1.12-0.34c-0.27-0.05-0.52-0.11-0.74-0.18c-0.22-0.07-0.41-0.16-0.56-0.27
							c-0.15-0.11-0.27-0.24-0.36-0.38c-0.09-0.15-0.13-0.33-0.13-0.54v-0.13c0-0.18,0.04-0.36,0.12-0.52
							c0.08-0.16,0.2-0.31,0.36-0.43c0.16-0.12,0.36-0.22,0.6-0.29c0.24-0.07,0.53-0.11,0.87-0.11c0.41,0,0.77,0.05,1.07,0.15
							c0.3,0.1,0.56,0.23,0.78,0.38l-0.31,0.48c-0.23-0.15-0.46-0.26-0.69-0.33c-0.23-0.08-0.52-0.11-0.87-0.11
							c-0.41,0-0.72,0.08-0.93,0.23s-0.32,0.34-0.32,0.57v0.1c0,0.22,0.12,0.4,0.35,0.52c0.24,0.13,0.57,0.23,1,0.3
							c0.67,0.12,1.15,0.29,1.44,0.51c0.3,0.22,0.44,0.54,0.44,0.95v0.14c0,0.2-0.05,0.39-0.15,0.56c-0.1,0.17-0.24,0.32-0.42,0.44
							c-0.18,0.12-0.38,0.22-0.62,0.29c-0.24,0.07-0.5,0.1-0.79,0.1c-0.44,0-0.83-0.06-1.17-0.17c-0.34-0.11-0.64-0.25-0.9-0.43
							l0.33-0.51c0.25,0.16,0.51,0.29,0.79,0.38C61.4,126.56,61.71,126.61,62.03,126.61z"/>
						<path style = "fill:#1A1A1A;" d="M68.79,126.43L68.79,126.43c-0.16,0.26-0.39,0.45-0.69,0.57c-0.3,0.12-0.61,0.18-0.92,0.18
							s-0.6-0.05-0.86-0.15c-0.26-0.1-0.49-0.24-0.68-0.43c-0.19-0.19-0.34-0.42-0.45-0.69c-0.11-0.27-0.16-0.58-0.16-0.93v-0.9
							c0-0.35,0.05-0.66,0.16-0.93c0.11-0.27,0.25-0.5,0.44-0.69s0.42-0.33,0.68-0.43c0.26-0.1,0.55-0.15,0.85-0.15
							c0.4,0,0.73,0.07,1,0.22c0.27,0.15,0.47,0.31,0.61,0.5v-2.69h0.68v7.18h-0.67V126.43z M65.71,124.9
							c0,0.55,0.14,0.98,0.41,1.27s0.64,0.45,1.09,0.45c0.22,0,0.42-0.03,0.61-0.08c0.19-0.05,0.35-0.14,0.5-0.25
							c0.14-0.11,0.25-0.25,0.33-0.42c0.08-0.17,0.12-0.37,0.12-0.59v-1.54c0-0.15-0.04-0.3-0.12-0.45
							c-0.08-0.15-0.19-0.28-0.32-0.41c-0.14-0.12-0.31-0.22-0.5-0.3s-0.4-0.11-0.63-0.11c-0.46,0-0.83,0.15-1.1,0.45
							s-0.4,0.72-0.4,1.27V124.9z"/>
						<path style = "fill:#1A1A1A;" d="M72.77,126.61c0.44,0,0.77-0.08,1-0.25c0.23-0.16,0.34-0.36,0.34-0.58v-0.09c0-0.26-0.11-0.46-0.33-0.59
							c-0.22-0.13-0.6-0.25-1.12-0.34c-0.27-0.05-0.52-0.11-0.74-0.18c-0.22-0.07-0.41-0.16-0.56-0.27
							c-0.15-0.11-0.27-0.24-0.36-0.38c-0.09-0.15-0.13-0.33-0.13-0.54v-0.13c0-0.18,0.04-0.36,0.12-0.52
							c0.08-0.16,0.2-0.31,0.36-0.43c0.16-0.12,0.36-0.22,0.6-0.29c0.24-0.07,0.53-0.11,0.87-0.11c0.41,0,0.77,0.05,1.07,0.15
							c0.3,0.1,0.56,0.23,0.78,0.38l-0.31,0.48c-0.23-0.15-0.46-0.26-0.69-0.33c-0.23-0.08-0.52-0.11-0.87-0.11
							c-0.41,0-0.72,0.08-0.93,0.23s-0.32,0.34-0.32,0.57v0.1c0,0.22,0.12,0.4,0.35,0.52c0.24,0.13,0.57,0.23,1,0.3
							c0.67,0.12,1.15,0.29,1.44,0.51c0.3,0.22,0.44,0.54,0.44,0.95v0.14c0,0.2-0.05,0.39-0.15,0.56c-0.1,0.17-0.24,0.32-0.42,0.44
							c-0.18,0.12-0.38,0.22-0.62,0.29c-0.24,0.07-0.5,0.1-0.79,0.1c-0.44,0-0.83-0.06-1.17-0.17c-0.34-0.11-0.64-0.25-0.9-0.43
							l0.33-0.51c0.25,0.16,0.51,0.29,0.79,0.38C72.14,126.56,72.45,126.61,72.77,126.61z"/>
						<path style = "fill:#1A1A1A;" d="M79.51,126.34L79.51,126.34c-0.16,0.26-0.39,0.45-0.68,0.57c-0.3,0.12-0.6,0.18-0.92,0.18
							c-0.31,0-0.6-0.05-0.86-0.15c-0.26-0.1-0.49-0.24-0.68-0.43s-0.34-0.42-0.45-0.69s-0.16-0.58-0.16-0.93v-0.81
							c0-0.35,0.05-0.66,0.16-0.93s0.25-0.5,0.44-0.69c0.19-0.19,0.42-0.33,0.68-0.43c0.26-0.1,0.55-0.15,0.85-0.15
							c0.4,0,0.73,0.07,1,0.22s0.48,0.31,0.62,0.5v-0.63h0.67v5.03c0,0.73-0.2,1.28-0.6,1.65c-0.4,0.37-0.93,0.56-1.6,0.56
							c-0.38,0-0.72-0.05-1.01-0.14c-0.3-0.09-0.56-0.22-0.79-0.39l0.31-0.5c0.13,0.08,0.25,0.15,0.36,0.2s0.23,0.1,0.35,0.13
							c0.12,0.04,0.24,0.06,0.36,0.07s0.27,0.02,0.42,0.02c0.5,0,0.88-0.13,1.14-0.38c0.26-0.26,0.38-0.65,0.38-1.19V126.34z
							 M76.44,124.8c0,0.55,0.14,0.98,0.41,1.27c0.27,0.3,0.64,0.45,1.09,0.45c0.22,0,0.42-0.03,0.62-0.08
							c0.19-0.05,0.35-0.14,0.49-0.25c0.14-0.11,0.25-0.25,0.33-0.42c0.08-0.17,0.12-0.37,0.12-0.59v-1.44
							c0-0.15-0.04-0.3-0.11-0.45c-0.08-0.15-0.19-0.28-0.33-0.41c-0.14-0.12-0.31-0.22-0.5-0.3s-0.4-0.11-0.63-0.11
							c-0.46,0-0.83,0.15-1.1,0.45c-0.27,0.3-0.4,0.72-0.4,1.27V124.8z"/>
						<path style = "fill:#1A1A1A;" d="M81.8,119.93h0.68v7.18H81.8V119.93z"/>
						<path style = "fill:#1A1A1A;" d="M84.88,127.74c0,0.56-0.12,0.95-0.35,1.16c-0.24,0.22-0.58,0.33-1.04,0.33c-0.15,0-0.31-0.01-0.48-0.03
							s-0.32-0.05-0.43-0.09l0.1-0.53c0.24,0.06,0.49,0.09,0.76,0.09c0.27,0,0.47-0.07,0.58-0.22c0.12-0.15,0.17-0.39,0.17-0.74
							v-5.72h0.68V127.74z M84.17,120.29h0.74v0.72h-0.74V120.29z"/>
						<path style = "fill:#1A1A1A;" d="M86.51,119.93h0.68v7.18h-0.68V119.93z"/>
						<path style = "fill:#1A1A1A;" d="M90.5,126.61c0.44,0,0.77-0.08,1-0.25c0.23-0.16,0.34-0.36,0.34-0.58v-0.09c0-0.26-0.11-0.46-0.33-0.59
							c-0.22-0.13-0.6-0.25-1.12-0.34c-0.27-0.05-0.52-0.11-0.74-0.18c-0.22-0.07-0.41-0.16-0.56-0.27
							c-0.15-0.11-0.27-0.24-0.36-0.38c-0.09-0.15-0.13-0.33-0.13-0.54v-0.13c0-0.18,0.04-0.36,0.12-0.52
							c0.08-0.16,0.2-0.31,0.36-0.43c0.16-0.12,0.36-0.22,0.6-0.29c0.24-0.07,0.53-0.11,0.87-0.11c0.41,0,0.77,0.05,1.07,0.15
							c0.3,0.1,0.56,0.23,0.78,0.38l-0.31,0.48c-0.23-0.15-0.46-0.26-0.69-0.33c-0.23-0.08-0.52-0.11-0.87-0.11
							c-0.41,0-0.72,0.08-0.93,0.23s-0.32,0.34-0.32,0.57v0.1c0,0.22,0.12,0.4,0.35,0.52c0.24,0.13,0.57,0.23,1,0.3
							c0.67,0.12,1.15,0.29,1.44,0.51c0.3,0.22,0.44,0.54,0.44,0.95v0.14c0,0.2-0.05,0.39-0.15,0.56c-0.1,0.17-0.24,0.32-0.42,0.44
							c-0.18,0.12-0.38,0.22-0.62,0.29c-0.24,0.07-0.5,0.1-0.79,0.1c-0.44,0-0.83-0.06-1.17-0.17c-0.34-0.11-0.64-0.25-0.9-0.43
							l0.33-0.51c0.25,0.16,0.51,0.29,0.79,0.38C89.87,126.56,90.18,126.61,90.5,126.61z"/>
						<path style = "fill:#1A1A1A;" d="M95.77,123.95l2.35,3.15h-0.83l-2-2.73l-0.87,0.8v1.93h-0.68v-7.18h0.68v4.48l2.6-2.42h0.91L95.77,123.95
							z"/>
						<path style = "fill:#1A1A1A;" d="M101.46,121.89c0.62,0,1.1,0.16,1.44,0.48c0.34,0.32,0.5,0.75,0.5,1.29v3.45h-0.68v-3.29
							c0-0.18-0.02-0.36-0.06-0.52c-0.04-0.16-0.11-0.3-0.21-0.43c-0.1-0.12-0.24-0.22-0.42-0.29c-0.18-0.07-0.4-0.1-0.67-0.1
							c-0.23,0-0.44,0.04-0.62,0.12s-0.35,0.18-0.48,0.31c-0.13,0.13-0.24,0.27-0.31,0.42c-0.08,0.15-0.12,0.3-0.12,0.46v3.33h-0.68
							v-5.12h0.67v0.71c0.06-0.09,0.14-0.19,0.24-0.29c0.1-0.1,0.22-0.18,0.36-0.26c0.14-0.08,0.3-0.14,0.47-0.19
							C101.05,121.92,101.24,121.89,101.46,121.89z"/>
						<path style = "fill:#1A1A1A;" d="M106.94,121.89c0.38,0,0.71,0.04,1,0.13c0.29,0.08,0.54,0.21,0.77,0.38l-0.31,0.5
							c-0.25-0.16-0.5-0.28-0.73-0.34c-0.23-0.06-0.48-0.09-0.73-0.09c-0.48,0-0.86,0.15-1.13,0.45s-0.41,0.72-0.41,1.26v0.66
							c0,0.56,0.14,1,0.42,1.3c0.28,0.3,0.66,0.46,1.14,0.46c0.37,0,0.68-0.05,0.93-0.15c0.24-0.1,0.46-0.22,0.65-0.36l0.32,0.51
							c-0.1,0.07-0.21,0.14-0.33,0.21c-0.12,0.07-0.26,0.13-0.41,0.19s-0.33,0.1-0.52,0.13c-0.19,0.04-0.41,0.05-0.65,0.05
							c-0.71,0-1.26-0.2-1.65-0.61c-0.39-0.41-0.59-0.99-0.59-1.73v-0.64c0-0.37,0.06-0.7,0.17-0.99c0.11-0.29,0.26-0.53,0.46-0.72
							c0.19-0.19,0.43-0.34,0.7-0.44C106.3,121.94,106.6,121.89,106.94,121.89z"/>
						<path style = "fill:#1A1A1A;" d="M109.9,119.93h0.68v7.18h-0.68V119.93z"/>
						<path style = "fill:#1A1A1A;" d="M112.18,120.29h0.74v0.72h-0.74V120.29z M112.21,121.99h0.68v5.12h-0.68V121.99z"/>
						<path style = "fill:#1A1A1A;" d="M116.23,126.61c0.44,0,0.77-0.08,1-0.25c0.23-0.16,0.34-0.36,0.34-0.58v-0.09c0-0.26-0.11-0.46-0.33-0.59
							c-0.22-0.13-0.6-0.25-1.12-0.34c-0.27-0.05-0.52-0.11-0.74-0.18c-0.22-0.07-0.41-0.16-0.56-0.27
							c-0.15-0.11-0.27-0.24-0.36-0.38c-0.09-0.15-0.13-0.33-0.13-0.54v-0.13c0-0.18,0.04-0.36,0.12-0.52
							c0.08-0.16,0.2-0.31,0.36-0.43c0.16-0.12,0.36-0.22,0.6-0.29c0.24-0.07,0.53-0.11,0.87-0.11c0.41,0,0.77,0.05,1.07,0.15
							c0.3,0.1,0.56,0.23,0.78,0.38l-0.31,0.48c-0.23-0.15-0.46-0.26-0.69-0.33c-0.23-0.08-0.52-0.11-0.87-0.11
							c-0.41,0-0.72,0.08-0.93,0.23s-0.32,0.34-0.32,0.57v0.1c0,0.22,0.12,0.4,0.35,0.52c0.24,0.13,0.57,0.23,1,0.3
							c0.67,0.12,1.15,0.29,1.44,0.51c0.3,0.22,0.44,0.54,0.44,0.95v0.14c0,0.2-0.05,0.39-0.15,0.56c-0.1,0.17-0.24,0.32-0.42,0.44
							c-0.18,0.12-0.38,0.22-0.62,0.29c-0.24,0.07-0.5,0.1-0.79,0.1c-0.44,0-0.83-0.06-1.17-0.17c-0.34-0.11-0.64-0.25-0.9-0.43
							l0.33-0.51c0.25,0.16,0.51,0.29,0.79,0.38C115.6,126.56,115.91,126.61,116.23,126.61z"/>
						<path style = "fill:#1A1A1A;" d="M123.46,126.61c-0.21,0.15-0.48,0.28-0.8,0.4c-0.32,0.12-0.71,0.18-1.16,0.18c-0.72,0-1.28-0.2-1.68-0.61
							c-0.4-0.41-0.6-0.99-0.6-1.73v-0.64c0-0.73,0.2-1.29,0.58-1.7c0.39-0.41,0.93-0.61,1.61-0.61c0.71,0,1.24,0.21,1.61,0.62
							c0.37,0.42,0.56,0.98,0.56,1.71v0.53h-3.68v0.09c0,0.57,0.14,1.01,0.43,1.32c0.29,0.31,0.68,0.46,1.18,0.46
							c0.36,0,0.68-0.05,0.95-0.15c0.27-0.1,0.51-0.22,0.7-0.35L123.46,126.61z M122.9,124.21v-0.09c0-0.54-0.13-0.95-0.39-1.23
							c-0.26-0.29-0.63-0.43-1.1-0.43c-0.48,0-0.85,0.15-1.12,0.45c-0.26,0.3-0.4,0.71-0.4,1.21v0.09H122.9z"/>
						<path style = "fill:#1A1A1A;" d="M125.72,127.74c0,0.56-0.12,0.95-0.35,1.16c-0.24,0.22-0.58,0.33-1.04,0.33c-0.15,0-0.31-0.01-0.48-0.03
							s-0.32-0.05-0.43-0.09l0.1-0.53c0.24,0.06,0.49,0.09,0.76,0.09c0.27,0,0.47-0.07,0.58-0.22c0.12-0.15,0.17-0.39,0.17-0.74
							v-5.72h0.68V127.74z M125.01,120.29h0.74v0.72h-0.74V120.29z"/>
						<path style = "fill:#1A1A1A;" d="M127.79,122.54h-0.92v-0.55h0.92v-0.65c0-0.28,0.03-0.51,0.09-0.7s0.15-0.34,0.27-0.45
							c0.12-0.11,0.26-0.2,0.43-0.25s0.37-0.08,0.6-0.08c0.15,0,0.31,0.01,0.49,0.03c0.18,0.02,0.32,0.05,0.42,0.09l-0.1,0.53
							c-0.24-0.06-0.49-0.09-0.76-0.09c-0.27,0-0.47,0.07-0.58,0.21c-0.12,0.14-0.18,0.38-0.18,0.73v0.62h1.49v0.55h-1.49v4.57
							h-0.68V122.54z"/>
						<path style = "fill:#1A1A1A;" d="M135,126.61c-0.21,0.15-0.48,0.28-0.8,0.4c-0.32,0.12-0.71,0.18-1.16,0.18c-0.72,0-1.28-0.2-1.68-0.61
							c-0.4-0.41-0.6-0.99-0.6-1.73v-0.64c0-0.73,0.2-1.29,0.58-1.7c0.39-0.41,0.93-0.61,1.61-0.61c0.71,0,1.24,0.21,1.61,0.62
							c0.37,0.42,0.56,0.98,0.56,1.71v0.53h-3.68v0.09c0,0.57,0.14,1.01,0.43,1.32c0.29,0.31,0.68,0.46,1.18,0.46
							c0.36,0,0.68-0.05,0.95-0.15c0.27-0.1,0.51-0.22,0.7-0.35L135,126.61z M134.44,124.21v-0.09c0-0.54-0.13-0.95-0.39-1.23
							c-0.26-0.29-0.63-0.43-1.1-0.43c-0.48,0-0.85,0.15-1.12,0.45c-0.26,0.3-0.4,0.71-0.4,1.21v0.09H134.44z"/>
						<path style = "fill:#1A1A1A;" d="M136.81,126.19c0.23,0.13,0.47,0.23,0.73,0.3c0.26,0.08,0.53,0.11,0.82,0.11c0.37,0,0.67-0.06,0.92-0.19
							c0.25-0.13,0.44-0.32,0.59-0.57s0.25-0.55,0.32-0.9c0.07-0.35,0.11-0.75,0.12-1.2c-0.05,0.1-0.13,0.21-0.23,0.32
							s-0.23,0.22-0.38,0.32c-0.15,0.1-0.33,0.18-0.53,0.25c-0.2,0.07-0.43,0.1-0.69,0.1c-0.31,0-0.6-0.05-0.88-0.15
							c-0.28-0.1-0.52-0.24-0.73-0.42s-0.38-0.41-0.5-0.67c-0.12-0.26-0.19-0.56-0.19-0.9v-0.23c0-0.34,0.06-0.64,0.18-0.91
							c0.12-0.27,0.28-0.5,0.49-0.7s0.46-0.34,0.75-0.45s0.6-0.16,0.94-0.16s0.65,0.06,0.95,0.17c0.3,0.11,0.55,0.28,0.77,0.51
							c0.22,0.23,0.4,0.52,0.52,0.87c0.13,0.35,0.19,0.76,0.19,1.24v0.29c0,0.75-0.05,1.39-0.17,1.9c-0.11,0.51-0.27,0.92-0.49,1.23
							c-0.22,0.31-0.5,0.53-0.83,0.66c-0.33,0.13-0.72,0.19-1.17,0.19c-0.33,0-0.64-0.04-0.95-0.12c-0.31-0.08-0.6-0.2-0.87-0.34
							L136.81,126.19z M140.24,122.5c0-0.25-0.04-0.49-0.12-0.7c-0.08-0.21-0.19-0.4-0.34-0.56c-0.15-0.16-0.32-0.28-0.52-0.36
							c-0.2-0.08-0.43-0.13-0.68-0.13s-0.47,0.04-0.68,0.11c-0.21,0.08-0.39,0.18-0.54,0.32c-0.15,0.14-0.27,0.31-0.35,0.52
							c-0.08,0.21-0.12,0.44-0.12,0.69v0.14c0,0.26,0.05,0.49,0.14,0.69c0.09,0.2,0.22,0.37,0.37,0.5c0.15,0.14,0.33,0.24,0.53,0.31
							c0.2,0.07,0.42,0.11,0.64,0.11c0.21,0,0.41-0.04,0.61-0.11c0.2-0.08,0.38-0.18,0.54-0.32s0.28-0.3,0.38-0.48
							s0.15-0.39,0.15-0.61V122.5z"/>
						<path style = "fill:#1A1A1A;" d="M145.12,123.55c0.2-0.22,0.36-0.41,0.48-0.57c0.12-0.16,0.21-0.3,0.27-0.42
							c0.06-0.12,0.11-0.23,0.13-0.33c0.02-0.1,0.04-0.19,0.04-0.28v-0.08c0-0.34-0.12-0.61-0.35-0.81c-0.24-0.2-0.58-0.3-1.02-0.3
							c-0.32,0-0.62,0.07-0.9,0.22c-0.28,0.15-0.54,0.42-0.77,0.82l-0.56-0.33c0.09-0.15,0.19-0.3,0.32-0.45
							c0.13-0.15,0.28-0.3,0.46-0.42c0.18-0.13,0.39-0.23,0.62-0.31c0.24-0.08,0.51-0.12,0.81-0.12c0.32,0,0.61,0.04,0.87,0.12
							c0.26,0.08,0.48,0.2,0.66,0.35c0.18,0.15,0.32,0.33,0.42,0.54c0.1,0.21,0.15,0.45,0.15,0.7v0.09c0,0.18-0.03,0.36-0.1,0.54
							c-0.07,0.17-0.16,0.34-0.27,0.51c-0.11,0.17-0.24,0.33-0.38,0.49c-0.15,0.17-0.3,0.33-0.45,0.5l-2.24,2.5h3.7v0.61h-4.58
							v-0.57L145.12,123.55z"/>
						<path style = "fill:#1A1A1A;" d="M148.34,125.21c0-0.38,0.12-0.71,0.37-1s0.56-0.49,0.96-0.6c-0.35-0.15-0.62-0.36-0.8-0.64
							c-0.19-0.27-0.29-0.59-0.29-0.95v-0.15c0-0.25,0.05-0.47,0.16-0.68c0.1-0.21,0.25-0.39,0.43-0.54
							c0.19-0.15,0.41-0.27,0.67-0.36c0.26-0.08,0.54-0.13,0.83-0.13s0.58,0.04,0.83,0.13c0.26,0.09,0.48,0.21,0.67,0.36
							c0.19,0.15,0.33,0.33,0.43,0.54c0.1,0.21,0.16,0.44,0.16,0.68v0.15c0,0.36-0.09,0.68-0.29,0.95
							c-0.19,0.27-0.46,0.48-0.81,0.64c0.19,0.06,0.37,0.14,0.54,0.24c0.16,0.1,0.3,0.22,0.42,0.37c0.12,0.14,0.21,0.3,0.27,0.47
							s0.1,0.35,0.1,0.54v0.16c0,0.27-0.06,0.52-0.17,0.75c-0.11,0.23-0.27,0.42-0.47,0.58c-0.2,0.16-0.45,0.29-0.73,0.38
							c-0.29,0.09-0.6,0.13-0.95,0.13s-0.66-0.04-0.95-0.13c-0.29-0.09-0.53-0.21-0.73-0.38c-0.2-0.16-0.36-0.36-0.47-0.58
							c-0.11-0.23-0.17-0.48-0.17-0.75V125.21z M149.05,125.35c0,0.18,0.04,0.34,0.11,0.49s0.18,0.29,0.32,0.4
							c0.14,0.11,0.31,0.2,0.5,0.27c0.2,0.07,0.42,0.1,0.67,0.1c0.25,0,0.48-0.03,0.68-0.1c0.2-0.07,0.37-0.16,0.5-0.27
							c0.14-0.11,0.24-0.25,0.32-0.4s0.11-0.32,0.11-0.49v-0.11c0-0.2-0.04-0.39-0.12-0.55c-0.08-0.16-0.19-0.31-0.33-0.43
							c-0.14-0.12-0.31-0.21-0.5-0.28c-0.2-0.06-0.42-0.09-0.66-0.09c-0.23,0-0.45,0.03-0.64,0.09c-0.2,0.06-0.37,0.15-0.51,0.27
							s-0.25,0.26-0.33,0.42c-0.08,0.16-0.12,0.35-0.12,0.56V125.35z M149.25,122.01c0,0.18,0.03,0.36,0.1,0.52
							c0.07,0.17,0.16,0.31,0.28,0.43c0.12,0.12,0.27,0.21,0.45,0.29c0.17,0.07,0.37,0.1,0.58,0.1c0.21,0,0.41-0.04,0.58-0.1
							c0.17-0.07,0.32-0.17,0.45-0.29c0.12-0.12,0.22-0.26,0.28-0.43c0.07-0.17,0.1-0.34,0.1-0.52v-0.11c0-0.35-0.13-0.63-0.38-0.84
							c-0.26-0.21-0.6-0.31-1.03-0.31c-0.43,0-0.78,0.1-1.03,0.31c-0.25,0.21-0.38,0.49-0.38,0.84V122.01z"/>
						<path style = "fill:#1A1A1A;" d="M154.34,125.21c0-0.38,0.12-0.71,0.37-1s0.56-0.49,0.96-0.6c-0.35-0.15-0.62-0.36-0.8-0.64
							c-0.19-0.27-0.29-0.59-0.29-0.95v-0.15c0-0.25,0.05-0.47,0.16-0.68c0.1-0.21,0.25-0.39,0.43-0.54
							c0.19-0.15,0.41-0.27,0.67-0.36c0.26-0.08,0.54-0.13,0.83-0.13s0.58,0.04,0.83,0.13c0.26,0.09,0.48,0.21,0.67,0.36
							c0.19,0.15,0.33,0.33,0.43,0.54c0.1,0.21,0.16,0.44,0.16,0.68v0.15c0,0.36-0.09,0.68-0.29,0.95
							c-0.19,0.27-0.46,0.48-0.81,0.64c0.19,0.06,0.37,0.14,0.54,0.24c0.16,0.1,0.3,0.22,0.42,0.37c0.12,0.14,0.21,0.3,0.27,0.47
							s0.1,0.35,0.1,0.54v0.16c0,0.27-0.06,0.52-0.17,0.75c-0.11,0.23-0.27,0.42-0.47,0.58c-0.2,0.16-0.45,0.29-0.73,0.38
							c-0.29,0.09-0.6,0.13-0.95,0.13s-0.66-0.04-0.95-0.13c-0.29-0.09-0.53-0.21-0.73-0.38c-0.2-0.16-0.36-0.36-0.47-0.58
							c-0.11-0.23-0.17-0.48-0.17-0.75V125.21z M155.05,125.35c0,0.18,0.04,0.34,0.11,0.49s0.18,0.29,0.32,0.4
							c0.14,0.11,0.31,0.2,0.5,0.27c0.2,0.07,0.42,0.1,0.67,0.1c0.25,0,0.48-0.03,0.68-0.1c0.2-0.07,0.37-0.16,0.5-0.27
							c0.14-0.11,0.24-0.25,0.32-0.4s0.11-0.32,0.11-0.49v-0.11c0-0.2-0.04-0.39-0.12-0.55c-0.08-0.16-0.19-0.31-0.33-0.43
							c-0.14-0.12-0.31-0.21-0.5-0.28c-0.2-0.06-0.42-0.09-0.66-0.09c-0.23,0-0.45,0.03-0.64,0.09c-0.2,0.06-0.37,0.15-0.51,0.27
							s-0.25,0.26-0.33,0.42c-0.08,0.16-0.12,0.35-0.12,0.56V125.35z M155.25,122.01c0,0.18,0.03,0.36,0.1,0.52
							c0.07,0.17,0.16,0.31,0.28,0.43c0.12,0.12,0.27,0.21,0.45,0.29c0.17,0.07,0.37,0.1,0.58,0.1c0.21,0,0.41-0.04,0.58-0.1
							c0.17-0.07,0.32-0.17,0.45-0.29c0.12-0.12,0.22-0.26,0.28-0.43c0.07-0.17,0.1-0.34,0.1-0.52v-0.11c0-0.35-0.13-0.63-0.38-0.84
							c-0.26-0.21-0.6-0.31-1.03-0.31c-0.43,0-0.78,0.1-1.03,0.31c-0.25,0.21-0.38,0.49-0.38,0.84V122.01z"/>
						<path style = "fill:#1A1A1A;" d="M162.17,126.61c0.44,0,0.77-0.08,1-0.25c0.23-0.16,0.34-0.36,0.34-0.58v-0.09c0-0.26-0.11-0.46-0.33-0.59
							c-0.22-0.13-0.59-0.25-1.11-0.34c-0.27-0.05-0.52-0.11-0.74-0.18c-0.22-0.07-0.41-0.16-0.56-0.27
							c-0.15-0.11-0.27-0.24-0.36-0.38c-0.09-0.15-0.13-0.33-0.13-0.54v-0.13c0-0.18,0.04-0.36,0.12-0.52
							c0.08-0.16,0.2-0.31,0.36-0.43c0.16-0.12,0.36-0.22,0.61-0.29c0.24-0.07,0.53-0.11,0.86-0.11c0.41,0,0.77,0.05,1.07,0.15
							c0.3,0.1,0.56,0.23,0.78,0.38l-0.31,0.48c-0.23-0.15-0.46-0.26-0.69-0.33s-0.52-0.11-0.87-0.11c-0.41,0-0.72,0.08-0.93,0.23
							c-0.21,0.16-0.32,0.34-0.32,0.57v0.1c0,0.22,0.12,0.4,0.35,0.52c0.24,0.13,0.57,0.23,1,0.3c0.67,0.12,1.15,0.29,1.45,0.51
							s0.45,0.54,0.45,0.95v0.14c0,0.2-0.05,0.39-0.15,0.56c-0.1,0.17-0.24,0.32-0.42,0.44c-0.18,0.12-0.38,0.22-0.62,0.29
							s-0.5,0.1-0.79,0.1c-0.44,0-0.83-0.06-1.17-0.17c-0.34-0.11-0.64-0.25-0.89-0.43l0.33-0.51c0.25,0.16,0.51,0.29,0.8,0.38
							C161.54,126.56,161.85,126.61,162.17,126.61z"/>
						<path style = "fill:#1A1A1A;" d="M165.45,121.22c0.09-0.14,0.19-0.27,0.32-0.4c0.13-0.13,0.27-0.24,0.45-0.34
							c0.17-0.1,0.36-0.18,0.58-0.24c0.22-0.06,0.46-0.09,0.74-0.09c0.33,0,0.62,0.04,0.88,0.12c0.26,0.08,0.49,0.2,0.67,0.35
							c0.18,0.15,0.33,0.33,0.43,0.54c0.1,0.21,0.15,0.45,0.15,0.7v0.09c0,0.13-0.02,0.27-0.06,0.42c-0.04,0.15-0.11,0.29-0.2,0.43
							c-0.09,0.14-0.22,0.27-0.38,0.39s-0.36,0.22-0.6,0.29c0.5,0.08,0.88,0.27,1.14,0.56c0.26,0.29,0.38,0.64,0.38,1.04v0.14
							c0,0.25-0.04,0.49-0.13,0.72c-0.09,0.23-0.23,0.45-0.42,0.63c-0.19,0.19-0.44,0.34-0.75,0.45c-0.31,0.11-0.69,0.17-1.12,0.17
							c-0.42,0-0.83-0.06-1.21-0.19c-0.39-0.12-0.75-0.31-1.1-0.57l0.35-0.53c0.35,0.24,0.68,0.42,1,0.52
							c0.31,0.11,0.63,0.16,0.96,0.16c0.31,0,0.58-0.04,0.8-0.12s0.4-0.19,0.54-0.32s0.24-0.28,0.3-0.44
							c0.06-0.16,0.09-0.32,0.09-0.48v-0.12c0-0.26-0.05-0.47-0.17-0.64c-0.11-0.17-0.25-0.3-0.41-0.4
							c-0.16-0.1-0.34-0.17-0.54-0.21c-0.2-0.04-0.38-0.06-0.56-0.06h-0.81v-0.57h0.84c0.23,0,0.42-0.04,0.59-0.12
							s0.3-0.18,0.42-0.31c0.11-0.13,0.19-0.27,0.25-0.42s0.08-0.31,0.08-0.45v-0.08c0-0.34-0.12-0.61-0.38-0.81s-0.59-0.3-1.04-0.3
							c-0.29,0-0.56,0.05-0.83,0.17c-0.27,0.11-0.5,0.32-0.71,0.63L165.45,121.22z"/>
						<path style = "fill:#1A1A1A;" d="M171.29,125.21c0-0.38,0.12-0.71,0.37-1s0.56-0.49,0.96-0.6c-0.35-0.15-0.62-0.36-0.8-0.64
							c-0.19-0.27-0.29-0.59-0.29-0.95v-0.15c0-0.25,0.05-0.47,0.16-0.68c0.1-0.21,0.25-0.39,0.43-0.54
							c0.19-0.15,0.41-0.27,0.67-0.36c0.26-0.08,0.54-0.13,0.83-0.13s0.58,0.04,0.83,0.13c0.26,0.09,0.48,0.21,0.67,0.36
							c0.19,0.15,0.33,0.33,0.43,0.54c0.1,0.21,0.16,0.44,0.16,0.68v0.15c0,0.36-0.09,0.68-0.29,0.95
							c-0.19,0.27-0.46,0.48-0.81,0.64c0.19,0.06,0.37,0.14,0.54,0.24c0.16,0.1,0.3,0.22,0.42,0.37c0.12,0.14,0.21,0.3,0.27,0.47
							s0.1,0.35,0.1,0.54v0.16c0,0.27-0.06,0.52-0.17,0.75c-0.11,0.23-0.27,0.42-0.47,0.58c-0.2,0.16-0.45,0.29-0.73,0.38
							c-0.29,0.09-0.6,0.13-0.95,0.13s-0.66-0.04-0.95-0.13c-0.29-0.09-0.53-0.21-0.73-0.38c-0.2-0.16-0.36-0.36-0.47-0.58
							c-0.11-0.23-0.17-0.48-0.17-0.75V125.21z M172,125.35c0,0.18,0.04,0.34,0.11,0.49s0.18,0.29,0.32,0.4
							c0.14,0.11,0.31,0.2,0.5,0.27c0.2,0.07,0.42,0.1,0.67,0.1c0.25,0,0.48-0.03,0.68-0.1c0.2-0.07,0.37-0.16,0.5-0.27
							c0.14-0.11,0.24-0.25,0.32-0.4s0.11-0.32,0.11-0.49v-0.11c0-0.2-0.04-0.39-0.12-0.55c-0.08-0.16-0.19-0.31-0.33-0.43
							c-0.14-0.12-0.31-0.21-0.5-0.28c-0.2-0.06-0.42-0.09-0.66-0.09c-0.23,0-0.45,0.03-0.64,0.09c-0.2,0.06-0.37,0.15-0.51,0.27
							s-0.25,0.26-0.33,0.42c-0.08,0.16-0.12,0.35-0.12,0.56V125.35z M172.2,122.01c0,0.18,0.03,0.36,0.1,0.52
							c0.07,0.17,0.16,0.31,0.28,0.43c0.12,0.12,0.27,0.21,0.45,0.29c0.17,0.07,0.37,0.1,0.58,0.1c0.21,0,0.41-0.04,0.58-0.1
							c0.17-0.07,0.32-0.17,0.45-0.29c0.12-0.12,0.22-0.26,0.28-0.43c0.07-0.17,0.1-0.34,0.1-0.52v-0.11c0-0.35-0.13-0.63-0.38-0.84
							c-0.26-0.21-0.6-0.31-1.03-0.31c-0.43,0-0.78,0.1-1.03,0.31c-0.25,0.21-0.38,0.49-0.38,0.84V122.01z"/>
						<path style = "fill:#1A1A1A;" d="M179.73,121.89c0.62,0,1.1,0.16,1.43,0.48c0.34,0.32,0.5,0.75,0.5,1.29v3.45h-0.68v-3.29
							c0-0.18-0.02-0.36-0.06-0.52c-0.04-0.16-0.11-0.3-0.21-0.43c-0.1-0.12-0.24-0.22-0.42-0.29c-0.18-0.07-0.4-0.1-0.67-0.1
							c-0.23,0-0.43,0.04-0.62,0.12c-0.19,0.08-0.35,0.18-0.48,0.31c-0.13,0.13-0.24,0.27-0.32,0.42c-0.08,0.15-0.11,0.3-0.11,0.46
							v3.33h-0.68v-7.18h0.68v2.77c0.06-0.09,0.14-0.19,0.24-0.29c0.1-0.1,0.22-0.18,0.36-0.26s0.29-0.14,0.46-0.19
							C179.32,121.92,179.51,121.89,179.73,121.89z"/>
						<path style = "fill:#1A1A1A;" d="M183.67,122.54h-0.92v-0.55h0.92v-0.65c0-0.28,0.03-0.51,0.09-0.7c0.06-0.19,0.15-0.34,0.26-0.45
							c0.12-0.11,0.26-0.2,0.44-0.25c0.17-0.05,0.37-0.08,0.6-0.08c0.15,0,0.31,0.01,0.49,0.03c0.18,0.02,0.32,0.05,0.42,0.09
							l-0.1,0.53c-0.24-0.06-0.49-0.09-0.76-0.09c-0.27,0-0.47,0.07-0.58,0.21c-0.12,0.14-0.17,0.38-0.17,0.73v0.62h1.49v0.55h-1.49
							v4.57h-0.68V122.54z"/>
						<path style = "fill:#1A1A1A;" d="M190.41,126.43h-0.01c-0.15,0.26-0.38,0.45-0.68,0.57s-0.61,0.18-0.92,0.18s-0.6-0.05-0.86-0.15
							c-0.26-0.1-0.49-0.24-0.68-0.43c-0.19-0.19-0.34-0.42-0.45-0.69s-0.16-0.58-0.16-0.93v-0.9c0-0.35,0.05-0.66,0.16-0.93
							s0.25-0.5,0.45-0.69s0.42-0.33,0.68-0.43c0.26-0.1,0.55-0.15,0.86-0.15c0.4,0,0.73,0.07,1,0.22s0.47,0.31,0.61,0.5v-2.69h0.68
							v7.18h-0.67V126.43z M187.33,124.9c0,0.55,0.14,0.98,0.41,1.27c0.27,0.3,0.64,0.45,1.09,0.45c0.22,0,0.42-0.03,0.62-0.08
							c0.19-0.05,0.35-0.14,0.49-0.25c0.14-0.11,0.25-0.25,0.33-0.42c0.08-0.17,0.12-0.37,0.12-0.59v-1.54
							c0-0.15-0.04-0.3-0.11-0.45c-0.08-0.15-0.19-0.28-0.33-0.41c-0.14-0.12-0.31-0.22-0.5-0.3s-0.4-0.11-0.63-0.11
							c-0.46,0-0.83,0.15-1.1,0.45c-0.27,0.3-0.4,0.72-0.4,1.27V124.9z"/>
						<path style = "fill:#1A1A1A;" d="M195,121.89c0.62,0,1.1,0.16,1.43,0.48c0.34,0.32,0.5,0.75,0.5,1.29v3.45h-0.68v-3.29
							c0-0.18-0.02-0.36-0.06-0.52c-0.04-0.16-0.11-0.3-0.21-0.43c-0.1-0.12-0.24-0.22-0.42-0.29c-0.18-0.07-0.4-0.1-0.67-0.1
							c-0.23,0-0.43,0.04-0.62,0.12c-0.19,0.08-0.35,0.18-0.48,0.31c-0.13,0.13-0.24,0.27-0.32,0.42c-0.08,0.15-0.11,0.3-0.11,0.46
							v3.33h-0.68v-7.18h0.68v2.77c0.06-0.09,0.14-0.19,0.24-0.29c0.1-0.1,0.22-0.18,0.36-0.26s0.29-0.14,0.46-0.19
							C194.59,121.92,194.78,121.89,195,121.89z"/>
						<path style = "fill:#1A1A1A;" d="M20.64,140.61c0.44,0,0.77-0.08,1-0.25c0.23-0.16,0.34-0.36,0.34-0.58v-0.09c0-0.26-0.11-0.46-0.33-0.59
							c-0.22-0.13-0.6-0.25-1.12-0.34c-0.27-0.05-0.52-0.11-0.74-0.18c-0.22-0.07-0.41-0.16-0.56-0.27
							c-0.15-0.11-0.27-0.24-0.36-0.38c-0.09-0.15-0.13-0.33-0.13-0.54v-0.13c0-0.18,0.04-0.36,0.12-0.52
							c0.08-0.16,0.2-0.31,0.36-0.43c0.16-0.12,0.36-0.22,0.6-0.29c0.24-0.07,0.53-0.11,0.87-0.11c0.41,0,0.77,0.05,1.07,0.15
							c0.3,0.1,0.56,0.23,0.78,0.38l-0.31,0.48c-0.23-0.15-0.46-0.26-0.69-0.33c-0.23-0.08-0.52-0.11-0.87-0.11
							c-0.41,0-0.72,0.08-0.93,0.23s-0.32,0.34-0.32,0.57v0.1c0,0.22,0.12,0.4,0.35,0.52c0.24,0.13,0.57,0.23,1,0.3
							c0.67,0.12,1.15,0.29,1.44,0.51c0.3,0.22,0.44,0.54,0.44,0.95v0.14c0,0.2-0.05,0.39-0.15,0.56c-0.1,0.17-0.24,0.32-0.42,0.44
							c-0.18,0.12-0.38,0.22-0.62,0.29c-0.24,0.07-0.5,0.1-0.79,0.1c-0.44,0-0.83-0.06-1.17-0.17c-0.34-0.11-0.64-0.25-0.9-0.43
							l0.33-0.51c0.25,0.16,0.51,0.29,0.79,0.38C20.01,140.56,20.32,140.61,20.64,140.61z"/>
						<path style = "fill:#1A1A1A;" d="M23.88,133.93h0.68v7.18h-0.68V133.93z"/>
						<path style = "fill:#1A1A1A;" d="M29.68,140.43L29.68,140.43c-0.16,0.26-0.39,0.45-0.69,0.57c-0.3,0.12-0.61,0.18-0.92,0.18
							s-0.6-0.05-0.86-0.15c-0.26-0.1-0.49-0.24-0.68-0.43c-0.19-0.19-0.34-0.42-0.45-0.69c-0.11-0.27-0.16-0.58-0.16-0.93v-0.9
							c0-0.35,0.05-0.66,0.16-0.93c0.11-0.27,0.25-0.5,0.44-0.69s0.42-0.33,0.68-0.43c0.26-0.1,0.55-0.15,0.85-0.15
							c0.4,0,0.73,0.07,1,0.22c0.27,0.15,0.47,0.31,0.61,0.5v-2.69h0.68v7.18h-0.67V140.43z M26.6,138.9c0,0.55,0.14,0.98,0.41,1.27
							s0.64,0.45,1.09,0.45c0.22,0,0.42-0.03,0.61-0.08c0.19-0.05,0.35-0.14,0.5-0.25c0.14-0.11,0.25-0.25,0.33-0.42
							c0.08-0.17,0.12-0.37,0.12-0.59v-1.54c0-0.15-0.04-0.3-0.12-0.45c-0.08-0.15-0.19-0.28-0.32-0.41
							c-0.14-0.12-0.31-0.22-0.5-0.3s-0.4-0.11-0.63-0.11c-0.46,0-0.83,0.15-1.1,0.45s-0.4,0.72-0.4,1.27V138.9z"/>
						<path style = "fill:#1A1A1A;" d="M32.39,136.54h-0.92v-0.55h0.92v-0.65c0-0.28,0.03-0.51,0.09-0.7s0.15-0.34,0.27-0.45
							c0.12-0.11,0.26-0.2,0.43-0.25s0.37-0.08,0.6-0.08c0.15,0,0.31,0.01,0.49,0.03c0.18,0.02,0.32,0.05,0.42,0.09l-0.1,0.53
							c-0.24-0.06-0.49-0.09-0.76-0.09c-0.27,0-0.47,0.07-0.58,0.21c-0.12,0.14-0.18,0.38-0.18,0.73v0.62h1.49v0.55h-1.49v4.57
							h-0.68V136.54z"/>
						<path style = "fill:#1A1A1A;" d="M37.72,137.95l2.35,3.15h-0.83l-2-2.73l-0.87,0.8v1.93h-0.68v-7.18h0.68v4.48l2.6-2.42h0.91L37.72,137.95
							z"/>
						<path style = "fill:#1A1A1A;" d="M41.89,141.74c0,0.56-0.12,0.95-0.35,1.16c-0.24,0.22-0.58,0.33-1.04,0.33c-0.15,0-0.31-0.01-0.48-0.03
							s-0.32-0.05-0.43-0.09l0.1-0.53c0.24,0.06,0.49,0.09,0.76,0.09c0.27,0,0.47-0.07,0.58-0.22c0.12-0.15,0.17-0.39,0.17-0.74
							v-5.72h0.68V141.74z M41.18,134.29h0.74v0.72h-0.74V134.29z"/>
						<path style = "fill:#1A1A1A;" d="M45.23,140.61c0.44,0,0.77-0.08,1-0.25c0.23-0.16,0.34-0.36,0.34-0.58v-0.09c0-0.26-0.11-0.46-0.33-0.59
							c-0.22-0.13-0.6-0.25-1.12-0.34c-0.27-0.05-0.52-0.11-0.74-0.18c-0.22-0.07-0.41-0.16-0.56-0.27
							c-0.15-0.11-0.27-0.24-0.36-0.38c-0.09-0.15-0.13-0.33-0.13-0.54v-0.13c0-0.18,0.04-0.36,0.12-0.52
							c0.08-0.16,0.2-0.31,0.36-0.43c0.16-0.12,0.36-0.22,0.6-0.29c0.24-0.07,0.53-0.11,0.87-0.11c0.41,0,0.77,0.05,1.07,0.15
							c0.3,0.1,0.56,0.23,0.78,0.38l-0.31,0.48c-0.23-0.15-0.46-0.26-0.69-0.33c-0.23-0.08-0.52-0.11-0.87-0.11
							c-0.41,0-0.72,0.08-0.93,0.23s-0.32,0.34-0.32,0.57v0.1c0,0.22,0.12,0.4,0.35,0.52c0.24,0.13,0.57,0.23,1,0.3
							c0.67,0.12,1.15,0.29,1.44,0.51c0.3,0.22,0.44,0.54,0.44,0.95v0.14c0,0.2-0.05,0.39-0.15,0.56c-0.1,0.17-0.24,0.32-0.42,0.44
							c-0.18,0.12-0.38,0.22-0.62,0.29c-0.24,0.07-0.5,0.1-0.79,0.1c-0.44,0-0.83-0.06-1.17-0.17c-0.34-0.11-0.64-0.25-0.9-0.43
							l0.33-0.51c0.25,0.16,0.51,0.29,0.79,0.38C44.6,140.56,44.91,140.61,45.23,140.61z"/>
						<path style = "fill:#1A1A1A;" d="M48.47,133.93h0.68v7.18h-0.68V133.93z"/>
						<path style = "fill:#1A1A1A;" d="M54.27,140.43L54.27,140.43c-0.16,0.26-0.39,0.45-0.69,0.57c-0.3,0.12-0.61,0.18-0.92,0.18
							s-0.6-0.05-0.86-0.15c-0.26-0.1-0.49-0.24-0.68-0.43c-0.19-0.19-0.34-0.42-0.45-0.69c-0.11-0.27-0.16-0.58-0.16-0.93v-0.9
							c0-0.35,0.05-0.66,0.16-0.93c0.11-0.27,0.25-0.5,0.44-0.69s0.42-0.33,0.68-0.43c0.26-0.1,0.55-0.15,0.85-0.15
							c0.4,0,0.73,0.07,1,0.22c0.27,0.15,0.47,0.31,0.61,0.5v-2.69h0.68v7.18h-0.67V140.43z M51.19,138.9
							c0,0.55,0.14,0.98,0.41,1.27s0.64,0.45,1.09,0.45c0.22,0,0.42-0.03,0.61-0.08c0.19-0.05,0.35-0.14,0.5-0.25
							c0.14-0.11,0.25-0.25,0.33-0.42c0.08-0.17,0.12-0.37,0.12-0.59v-1.54c0-0.15-0.04-0.3-0.12-0.45
							c-0.08-0.15-0.19-0.28-0.32-0.41c-0.14-0.12-0.31-0.22-0.5-0.3s-0.4-0.11-0.63-0.11c-0.46,0-0.83,0.15-1.1,0.45
							s-0.4,0.72-0.4,1.27V138.9z"/>
						<path style = "fill:#1A1A1A;" d="M58.25,140.61c0.44,0,0.77-0.08,1-0.25c0.23-0.16,0.34-0.36,0.34-0.58v-0.09c0-0.26-0.11-0.46-0.33-0.59
							c-0.22-0.13-0.6-0.25-1.12-0.34c-0.27-0.05-0.52-0.11-0.74-0.18c-0.22-0.07-0.41-0.16-0.56-0.27
							c-0.15-0.11-0.27-0.24-0.36-0.38c-0.09-0.15-0.13-0.33-0.13-0.54v-0.13c0-0.18,0.04-0.36,0.12-0.52
							c0.08-0.16,0.2-0.31,0.36-0.43c0.16-0.12,0.36-0.22,0.6-0.29c0.24-0.07,0.53-0.11,0.87-0.11c0.41,0,0.77,0.05,1.07,0.15
							c0.3,0.1,0.56,0.23,0.78,0.38l-0.31,0.48c-0.23-0.15-0.46-0.26-0.69-0.33c-0.23-0.08-0.52-0.11-0.87-0.11
							c-0.41,0-0.72,0.08-0.93,0.23s-0.32,0.34-0.32,0.57v0.1c0,0.22,0.12,0.4,0.35,0.52c0.24,0.13,0.57,0.23,1,0.3
							c0.67,0.12,1.15,0.29,1.44,0.51c0.3,0.22,0.44,0.54,0.44,0.95v0.14c0,0.2-0.05,0.39-0.15,0.56c-0.1,0.17-0.24,0.32-0.42,0.44
							c-0.18,0.12-0.38,0.22-0.62,0.29c-0.24,0.07-0.5,0.1-0.79,0.1c-0.44,0-0.83-0.06-1.17-0.17c-0.34-0.11-0.64-0.25-0.9-0.43
							l0.33-0.51c0.25,0.16,0.51,0.29,0.79,0.38C57.62,140.56,57.93,140.61,58.25,140.61z"/>
						<path style = "fill:#1A1A1A;" d="M61.49,133.93h0.68v7.18h-0.68V133.93z"/>
						<path style = "fill:#1A1A1A;" d="M67.29,140.43L67.29,140.43c-0.16,0.26-0.39,0.45-0.69,0.57c-0.3,0.12-0.61,0.18-0.92,0.18
							s-0.6-0.05-0.86-0.15c-0.26-0.1-0.49-0.24-0.68-0.43c-0.19-0.19-0.34-0.42-0.45-0.69c-0.11-0.27-0.16-0.58-0.16-0.93v-0.9
							c0-0.35,0.05-0.66,0.16-0.93c0.11-0.27,0.25-0.5,0.44-0.69s0.42-0.33,0.68-0.43c0.26-0.1,0.55-0.15,0.85-0.15
							c0.4,0,0.73,0.07,1,0.22c0.27,0.15,0.47,0.31,0.61,0.5v-2.69h0.68v7.18h-0.67V140.43z M64.21,138.9
							c0,0.55,0.14,0.98,0.41,1.27s0.64,0.45,1.09,0.45c0.22,0,0.42-0.03,0.61-0.08c0.19-0.05,0.35-0.14,0.5-0.25
							c0.14-0.11,0.25-0.25,0.33-0.42c0.08-0.17,0.12-0.37,0.12-0.59v-1.54c0-0.15-0.04-0.3-0.12-0.45
							c-0.08-0.15-0.19-0.28-0.32-0.41c-0.14-0.12-0.31-0.22-0.5-0.3s-0.4-0.11-0.63-0.11c-0.46,0-0.83,0.15-1.1,0.45
							s-0.4,0.72-0.4,1.27V138.9z"/>
						<path style = "fill:#1A1A1A;" d="M69.44,139.21c0-0.38,0.12-0.71,0.36-1s0.56-0.49,0.96-0.6c-0.35-0.15-0.62-0.36-0.81-0.64
							c-0.19-0.27-0.28-0.59-0.28-0.95v-0.15c0-0.25,0.05-0.47,0.15-0.68s0.25-0.39,0.44-0.54c0.19-0.15,0.41-0.27,0.67-0.36
							c0.26-0.08,0.54-0.13,0.83-0.13s0.58,0.04,0.83,0.13c0.26,0.09,0.48,0.21,0.67,0.36c0.19,0.15,0.33,0.33,0.44,0.54
							c0.1,0.21,0.15,0.44,0.15,0.68v0.15c0,0.36-0.09,0.68-0.28,0.95c-0.19,0.27-0.46,0.48-0.81,0.64
							c0.19,0.06,0.37,0.14,0.53,0.24c0.16,0.1,0.3,0.22,0.42,0.37s0.21,0.3,0.28,0.47c0.07,0.17,0.1,0.35,0.1,0.54v0.16
							c0,0.27-0.05,0.52-0.17,0.75c-0.11,0.23-0.27,0.42-0.47,0.58c-0.2,0.16-0.45,0.29-0.73,0.38c-0.29,0.09-0.6,0.13-0.95,0.13
							s-0.66-0.04-0.95-0.13c-0.29-0.09-0.53-0.21-0.73-0.38c-0.2-0.16-0.36-0.36-0.47-0.58c-0.11-0.23-0.17-0.48-0.17-0.75V139.21z
							 M70.15,139.35c0,0.18,0.04,0.34,0.11,0.49s0.18,0.29,0.32,0.4c0.14,0.11,0.31,0.2,0.51,0.27c0.2,0.07,0.42,0.1,0.67,0.1
							s0.48-0.03,0.68-0.1c0.2-0.07,0.37-0.16,0.5-0.27c0.14-0.11,0.24-0.25,0.31-0.4s0.11-0.32,0.11-0.49v-0.11
							c0-0.2-0.04-0.39-0.12-0.55c-0.08-0.16-0.19-0.31-0.33-0.43c-0.14-0.12-0.31-0.21-0.51-0.28c-0.2-0.06-0.41-0.09-0.65-0.09
							c-0.23,0-0.45,0.03-0.65,0.09c-0.2,0.06-0.37,0.15-0.51,0.27c-0.14,0.12-0.26,0.26-0.34,0.42c-0.08,0.16-0.12,0.35-0.12,0.56
							V139.35z M70.35,136.01c0,0.18,0.03,0.36,0.1,0.52c0.07,0.17,0.16,0.31,0.29,0.43c0.12,0.12,0.27,0.21,0.44,0.29
							c0.17,0.07,0.37,0.1,0.58,0.1s0.41-0.04,0.58-0.1c0.17-0.07,0.32-0.17,0.44-0.29s0.22-0.26,0.29-0.43
							c0.07-0.17,0.1-0.34,0.1-0.52v-0.11c0-0.35-0.13-0.63-0.39-0.84c-0.26-0.21-0.6-0.31-1.02-0.31c-0.43,0-0.78,0.1-1.03,0.31
							c-0.25,0.21-0.38,0.49-0.38,0.84V136.01z"/>
						<path style = "fill:#1A1A1A;" d="M79.46,136.82v2.16h1.06v0.61h-1.06v1.52h-0.7v-1.52h-3.61v-0.61l3.5-4.72h0.8l-3.49,4.72h2.8v-2.16
							H79.46z"/>
						<path style = "fill:#1A1A1A;" d="M85.59,135.16c-0.23-0.13-0.47-0.23-0.73-0.3c-0.26-0.07-0.52-0.11-0.81-0.11
							c-0.34,0-0.63,0.06-0.86,0.19s-0.43,0.32-0.58,0.57s-0.27,0.55-0.35,0.91c-0.08,0.36-0.13,0.76-0.16,1.22
							c0.05-0.1,0.13-0.21,0.23-0.32c0.1-0.11,0.23-0.22,0.38-0.31c0.15-0.09,0.33-0.17,0.53-0.23c0.2-0.06,0.43-0.09,0.68-0.09
							c0.31,0,0.6,0.05,0.88,0.14c0.28,0.09,0.52,0.23,0.73,0.41s0.38,0.4,0.5,0.67s0.19,0.56,0.19,0.9v0.23
							c0,0.34-0.06,0.64-0.18,0.91c-0.12,0.27-0.28,0.5-0.49,0.69c-0.21,0.19-0.46,0.33-0.75,0.44s-0.6,0.15-0.94,0.15
							c-0.34,0-0.66-0.06-0.96-0.17c-0.3-0.11-0.56-0.28-0.77-0.51c-0.22-0.23-0.39-0.52-0.52-0.87c-0.13-0.35-0.19-0.76-0.19-1.24
							v-0.23c0-0.73,0.06-1.36,0.19-1.87c0.12-0.51,0.3-0.93,0.52-1.25c0.23-0.32,0.5-0.56,0.83-0.7c0.33-0.15,0.7-0.22,1.11-0.22
							c0.33,0,0.65,0.04,0.96,0.12c0.32,0.08,0.61,0.2,0.89,0.34L85.59,135.16z M82.18,138.9c0,0.26,0.04,0.49,0.12,0.7
							s0.19,0.39,0.34,0.54c0.15,0.15,0.32,0.27,0.52,0.35c0.2,0.08,0.43,0.12,0.68,0.12s0.47-0.04,0.68-0.11
							c0.21-0.07,0.39-0.18,0.54-0.31c0.15-0.14,0.27-0.3,0.35-0.5c0.08-0.2,0.12-0.43,0.12-0.69v-0.14c0-0.25-0.05-0.48-0.14-0.68
							s-0.22-0.37-0.37-0.5c-0.15-0.14-0.33-0.24-0.53-0.31c-0.2-0.07-0.42-0.1-0.64-0.1c-0.21,0-0.42,0.04-0.62,0.11
							c-0.2,0.08-0.38,0.18-0.53,0.31s-0.28,0.29-0.38,0.48s-0.15,0.39-0.15,0.6V138.9z"/>
						<path style = "fill:#1A1A1A;" d="M88,136.54h-0.92v-0.55H88v-0.65c0-0.28,0.03-0.51,0.09-0.7s0.15-0.34,0.27-0.45
							c0.12-0.11,0.26-0.2,0.43-0.25s0.37-0.08,0.6-0.08c0.15,0,0.31,0.01,0.49,0.03c0.18,0.02,0.32,0.05,0.42,0.09l-0.1,0.53
							c-0.24-0.06-0.49-0.09-0.76-0.09c-0.27,0-0.47,0.07-0.58,0.21c-0.12,0.14-0.18,0.38-0.18,0.73v0.62h1.49v0.55h-1.49v4.57H88
							V136.54z"/>
						<path style = "fill:#1A1A1A;" d="M93.33,137.95l2.35,3.15h-0.83l-2-2.73l-0.87,0.8v1.93H91.3v-7.18h0.68v4.48l2.6-2.42h0.91L93.33,137.95z
							"/>
						<path style = "fill:#1A1A1A;" d="M98.41,140.61c0.44,0,0.77-0.08,1-0.25c0.23-0.16,0.34-0.36,0.34-0.58v-0.09c0-0.26-0.11-0.46-0.33-0.59
							c-0.22-0.13-0.6-0.25-1.12-0.34c-0.27-0.05-0.52-0.11-0.74-0.18c-0.22-0.07-0.41-0.16-0.56-0.27
							c-0.15-0.11-0.27-0.24-0.36-0.38c-0.09-0.15-0.13-0.33-0.13-0.54v-0.13c0-0.18,0.04-0.36,0.12-0.52
							c0.08-0.16,0.2-0.31,0.36-0.43c0.16-0.12,0.36-0.22,0.6-0.29c0.24-0.07,0.53-0.11,0.87-0.11c0.41,0,0.77,0.05,1.07,0.15
							c0.3,0.1,0.56,0.23,0.78,0.38l-0.31,0.48c-0.23-0.15-0.46-0.26-0.69-0.33c-0.23-0.08-0.52-0.11-0.87-0.11
							c-0.41,0-0.72,0.08-0.93,0.23s-0.32,0.34-0.32,0.57v0.1c0,0.22,0.12,0.4,0.35,0.52c0.24,0.13,0.57,0.23,1,0.3
							c0.67,0.12,1.15,0.29,1.44,0.51c0.3,0.22,0.44,0.54,0.44,0.95v0.14c0,0.2-0.05,0.39-0.15,0.56c-0.1,0.17-0.24,0.32-0.42,0.44
							c-0.18,0.12-0.38,0.22-0.62,0.29c-0.24,0.07-0.5,0.1-0.79,0.1c-0.44,0-0.83-0.06-1.17-0.17c-0.34-0.11-0.64-0.25-0.9-0.43
							l0.33-0.51c0.25,0.16,0.51,0.29,0.79,0.38C97.78,140.56,98.09,140.61,98.41,140.61z"/>
						<path style = "fill:#1A1A1A;" d="M101.65,133.93h0.68v7.18h-0.68V133.93z"/>
						<path style = "fill:#1A1A1A;" d="M107.45,140.43L107.45,140.43c-0.16,0.26-0.39,0.45-0.69,0.57c-0.3,0.12-0.61,0.18-0.92,0.18
							s-0.6-0.05-0.86-0.15c-0.26-0.1-0.49-0.24-0.68-0.43c-0.19-0.19-0.34-0.42-0.45-0.69c-0.11-0.27-0.16-0.58-0.16-0.93v-0.9
							c0-0.35,0.05-0.66,0.16-0.93c0.11-0.27,0.25-0.5,0.44-0.69s0.42-0.33,0.68-0.43c0.26-0.1,0.55-0.15,0.85-0.15
							c0.4,0,0.73,0.07,1,0.22c0.27,0.15,0.47,0.31,0.61,0.5v-2.69h0.68v7.18h-0.67V140.43z M104.37,138.9
							c0,0.55,0.14,0.98,0.41,1.27s0.64,0.45,1.09,0.45c0.22,0,0.42-0.03,0.61-0.08c0.19-0.05,0.35-0.14,0.5-0.25
							c0.14-0.11,0.25-0.25,0.33-0.42c0.08-0.17,0.12-0.37,0.12-0.59v-1.54c0-0.15-0.04-0.3-0.12-0.45
							c-0.08-0.15-0.19-0.28-0.32-0.41c-0.14-0.12-0.31-0.22-0.5-0.3s-0.4-0.11-0.63-0.11c-0.46,0-0.83,0.15-1.1,0.45
							s-0.4,0.72-0.4,1.27V138.9z"/>
						<path style = "fill:#1A1A1A;" d="M111.75,137.95l2.35,3.15h-0.83l-2-2.73l-0.87,0.8v1.93h-0.68v-7.18h0.68v4.48l2.6-2.42h0.91
							L111.75,137.95z"/>
						<path style = "fill:#1A1A1A;" d="M115.56,136.54h-0.92v-0.55h0.92v-0.65c0-0.28,0.03-0.51,0.09-0.7s0.15-0.34,0.27-0.45
							c0.12-0.11,0.26-0.2,0.43-0.25s0.37-0.08,0.6-0.08c0.15,0,0.31,0.01,0.49,0.03c0.18,0.02,0.32,0.05,0.42,0.09l-0.1,0.53
							c-0.24-0.06-0.49-0.09-0.76-0.09c-0.27,0-0.47,0.07-0.58,0.21c-0.12,0.14-0.18,0.38-0.18,0.73v0.62h1.49v0.55h-1.49v4.57
							h-0.68V136.54z"/>
						<path style = "fill:#1A1A1A;" d="M119.66,141.74c0,0.56-0.12,0.95-0.35,1.16c-0.24,0.22-0.58,0.33-1.04,0.33c-0.15,0-0.31-0.01-0.48-0.03
							s-0.32-0.05-0.43-0.09l0.1-0.53c0.24,0.06,0.49,0.09,0.76,0.09c0.27,0,0.47-0.07,0.58-0.22c0.12-0.15,0.17-0.39,0.17-0.74
							v-5.72h0.68V141.74z M118.95,134.29h0.74v0.72h-0.74V134.29z"/>
						<path style = "fill:#1A1A1A;" d="M123,140.61c0.44,0,0.77-0.08,1-0.25c0.23-0.16,0.34-0.36,0.34-0.58v-0.09c0-0.26-0.11-0.46-0.33-0.59
							c-0.22-0.13-0.6-0.25-1.12-0.34c-0.27-0.05-0.52-0.11-0.74-0.18c-0.22-0.07-0.41-0.16-0.56-0.27
							c-0.15-0.11-0.27-0.24-0.36-0.38c-0.09-0.15-0.13-0.33-0.13-0.54v-0.13c0-0.18,0.04-0.36,0.12-0.52
							c0.08-0.16,0.2-0.31,0.36-0.43c0.16-0.12,0.36-0.22,0.6-0.29c0.24-0.07,0.53-0.11,0.87-0.11c0.41,0,0.77,0.05,1.07,0.15
							c0.3,0.1,0.56,0.23,0.78,0.38l-0.31,0.48c-0.23-0.15-0.46-0.26-0.69-0.33c-0.23-0.08-0.52-0.11-0.87-0.11
							c-0.41,0-0.72,0.08-0.93,0.23s-0.32,0.34-0.32,0.57v0.1c0,0.22,0.12,0.4,0.35,0.52c0.24,0.13,0.57,0.23,1,0.3
							c0.67,0.12,1.15,0.29,1.44,0.51c0.3,0.22,0.44,0.54,0.44,0.95v0.14c0,0.2-0.05,0.39-0.15,0.56c-0.1,0.17-0.24,0.32-0.42,0.44
							c-0.18,0.12-0.38,0.22-0.62,0.29c-0.24,0.07-0.5,0.1-0.79,0.1c-0.44,0-0.83-0.06-1.17-0.17c-0.34-0.11-0.64-0.25-0.9-0.43
							l0.33-0.51c0.25,0.16,0.51,0.29,0.79,0.38C122.37,140.56,122.68,140.61,123,140.61z"/>
						<path style = "fill:#1A1A1A;" d="M126.24,133.93h0.68v7.18h-0.68V133.93z"/>
						<path style = "fill:#1A1A1A;" d="M132.04,140.43L132.04,140.43c-0.16,0.26-0.39,0.45-0.69,0.57c-0.3,0.12-0.61,0.18-0.92,0.18
							s-0.6-0.05-0.86-0.15c-0.26-0.1-0.49-0.24-0.68-0.43c-0.19-0.19-0.34-0.42-0.45-0.69c-0.11-0.27-0.16-0.58-0.16-0.93v-0.9
							c0-0.35,0.05-0.66,0.16-0.93c0.11-0.27,0.25-0.5,0.44-0.69s0.42-0.33,0.68-0.43c0.26-0.1,0.55-0.15,0.85-0.15
							c0.4,0,0.73,0.07,1,0.22c0.27,0.15,0.47,0.31,0.61,0.5v-2.69h0.68v7.18h-0.67V140.43z M128.96,138.9
							c0,0.55,0.14,0.98,0.41,1.27s0.64,0.45,1.09,0.45c0.22,0,0.42-0.03,0.61-0.08c0.19-0.05,0.35-0.14,0.5-0.25
							c0.14-0.11,0.25-0.25,0.33-0.42c0.08-0.17,0.12-0.37,0.12-0.59v-1.54c0-0.15-0.04-0.3-0.12-0.45
							c-0.08-0.15-0.19-0.28-0.32-0.41c-0.14-0.12-0.31-0.22-0.5-0.3s-0.4-0.11-0.63-0.11c-0.46,0-0.83,0.15-1.1,0.45
							s-0.4,0.72-0.4,1.27V138.9z"/>
						<path style = "fill:#1A1A1A;" d="M136.34,137.95l2.35,3.15h-0.83l-2-2.73l-0.87,0.8v1.93h-0.68v-7.18h0.68v4.48l2.6-2.42h0.91
							L136.34,137.95z"/>
						<path style = "fill:#1A1A1A;" d="M140.15,136.54h-0.92v-0.55h0.92v-0.65c0-0.28,0.03-0.51,0.09-0.7s0.15-0.34,0.27-0.45
							c0.12-0.11,0.26-0.2,0.44-0.25c0.17-0.05,0.37-0.08,0.6-0.08c0.15,0,0.31,0.01,0.49,0.03c0.18,0.02,0.32,0.05,0.42,0.09
							l-0.1,0.53c-0.24-0.06-0.49-0.09-0.76-0.09c-0.27,0-0.47,0.07-0.58,0.21c-0.12,0.14-0.17,0.38-0.17,0.73v0.62h1.49v0.55h-1.49
							v4.57h-0.68V136.54z"/>
						<path style = "fill:#1A1A1A;" d="M145.16,140.61c0.44,0,0.77-0.08,1-0.25c0.23-0.16,0.34-0.36,0.34-0.58v-0.09c0-0.26-0.11-0.46-0.33-0.59
							c-0.22-0.13-0.59-0.25-1.11-0.34c-0.27-0.05-0.52-0.11-0.74-0.18c-0.22-0.07-0.41-0.16-0.56-0.27
							c-0.15-0.11-0.27-0.24-0.36-0.38c-0.09-0.15-0.13-0.33-0.13-0.54v-0.13c0-0.18,0.04-0.36,0.12-0.52
							c0.08-0.16,0.2-0.31,0.36-0.43c0.16-0.12,0.36-0.22,0.61-0.29c0.24-0.07,0.53-0.11,0.86-0.11c0.41,0,0.77,0.05,1.07,0.15
							c0.3,0.1,0.56,0.23,0.78,0.38l-0.31,0.48c-0.23-0.15-0.46-0.26-0.69-0.33s-0.52-0.11-0.87-0.11c-0.41,0-0.72,0.08-0.93,0.23
							c-0.21,0.16-0.32,0.34-0.32,0.57v0.1c0,0.22,0.12,0.4,0.35,0.52c0.24,0.13,0.57,0.23,1,0.3c0.67,0.12,1.15,0.29,1.45,0.51
							s0.45,0.54,0.45,0.95v0.14c0,0.2-0.05,0.39-0.15,0.56c-0.1,0.17-0.24,0.32-0.42,0.44c-0.18,0.12-0.38,0.22-0.62,0.29
							s-0.5,0.1-0.79,0.1c-0.44,0-0.83-0.06-1.17-0.17c-0.34-0.11-0.64-0.25-0.89-0.43l0.33-0.51c0.25,0.16,0.51,0.29,0.8,0.38
							C144.53,140.56,144.84,140.61,145.16,140.61z"/>
						<path style = "fill:#1A1A1A;" d="M148.4,133.93h0.68v7.18h-0.68V133.93z"/>
						<path style = "fill:#1A1A1A;" d="M154.2,140.43h-0.01c-0.15,0.26-0.38,0.45-0.68,0.57s-0.61,0.18-0.92,0.18s-0.6-0.05-0.86-0.15
							c-0.26-0.1-0.49-0.24-0.68-0.43c-0.19-0.19-0.34-0.42-0.45-0.69s-0.16-0.58-0.16-0.93v-0.9c0-0.35,0.05-0.66,0.16-0.93
							s0.25-0.5,0.45-0.69s0.42-0.33,0.68-0.43c0.26-0.1,0.55-0.15,0.86-0.15c0.4,0,0.73,0.07,1,0.22s0.47,0.31,0.61,0.5v-2.69h0.68
							v7.18h-0.67V140.43z M151.12,138.9c0,0.55,0.14,0.98,0.41,1.27c0.27,0.3,0.64,0.45,1.09,0.45c0.22,0,0.42-0.03,0.62-0.08
							c0.19-0.05,0.35-0.14,0.49-0.25c0.14-0.11,0.25-0.25,0.33-0.42c0.08-0.17,0.12-0.37,0.12-0.59v-1.54
							c0-0.15-0.04-0.3-0.11-0.45c-0.08-0.15-0.19-0.28-0.33-0.41c-0.14-0.12-0.31-0.22-0.5-0.3s-0.4-0.11-0.63-0.11
							c-0.46,0-0.83,0.15-1.1,0.45c-0.27,0.3-0.4,0.72-0.4,1.27V138.9z"/>
						<path style = "fill:#1A1A1A;" d="M158.5,137.95l2.35,3.15h-0.83l-2-2.73l-0.87,0.8v1.93h-0.68v-7.18h0.68v4.48l2.6-2.42h0.91L158.5,137.95
							z"/>
						<path style = "fill:#1A1A1A;" d="M162.31,136.54h-0.92v-0.55h0.92v-0.65c0-0.28,0.03-0.51,0.09-0.7c0.06-0.19,0.15-0.34,0.26-0.45
							c0.12-0.11,0.26-0.2,0.44-0.25c0.17-0.05,0.37-0.08,0.6-0.08c0.15,0,0.31,0.01,0.49,0.03c0.18,0.02,0.32,0.05,0.42,0.09
							l-0.1,0.53c-0.24-0.06-0.49-0.09-0.76-0.09c-0.27,0-0.47,0.07-0.58,0.21c-0.12,0.14-0.17,0.38-0.17,0.73v0.62h1.49v0.55h-1.49
							v4.57h-0.68V136.54z"/>
						<path style = "fill:#1A1A1A;" d="M166.41,141.74c0,0.56-0.12,0.95-0.35,1.16c-0.24,0.22-0.58,0.33-1.04,0.33c-0.15,0-0.31-0.01-0.49-0.03
							c-0.18-0.02-0.32-0.05-0.42-0.09l0.1-0.53c0.24,0.06,0.49,0.09,0.76,0.09c0.27,0,0.47-0.07,0.58-0.22
							c0.12-0.15,0.17-0.39,0.17-0.74v-5.72h0.68V141.74z M165.7,134.29h0.74v0.72h-0.74V134.29z"/>
						<path style = "fill:#1A1A1A;" d="M169.75,140.61c0.44,0,0.77-0.08,1-0.25c0.23-0.16,0.34-0.36,0.34-0.58v-0.09c0-0.26-0.11-0.46-0.33-0.59
							c-0.22-0.13-0.59-0.25-1.11-0.34c-0.27-0.05-0.52-0.11-0.74-0.18c-0.22-0.07-0.41-0.16-0.56-0.27
							c-0.15-0.11-0.27-0.24-0.36-0.38c-0.09-0.15-0.13-0.33-0.13-0.54v-0.13c0-0.18,0.04-0.36,0.12-0.52
							c0.08-0.16,0.2-0.31,0.36-0.43c0.16-0.12,0.36-0.22,0.61-0.29c0.24-0.07,0.53-0.11,0.86-0.11c0.41,0,0.77,0.05,1.07,0.15
							c0.3,0.1,0.56,0.23,0.78,0.38l-0.31,0.48c-0.23-0.15-0.46-0.26-0.69-0.33s-0.52-0.11-0.87-0.11c-0.41,0-0.72,0.08-0.93,0.23
							c-0.21,0.16-0.32,0.34-0.32,0.57v0.1c0,0.22,0.12,0.4,0.35,0.52c0.24,0.13,0.57,0.23,1,0.3c0.67,0.12,1.15,0.29,1.45,0.51
							s0.45,0.54,0.45,0.95v0.14c0,0.2-0.05,0.39-0.15,0.56c-0.1,0.17-0.24,0.32-0.42,0.44c-0.18,0.12-0.38,0.22-0.62,0.29
							s-0.5,0.1-0.79,0.1c-0.44,0-0.83-0.06-1.17-0.17c-0.34-0.11-0.64-0.25-0.89-0.43l0.33-0.51c0.25,0.16,0.51,0.29,0.8,0.38
							C169.12,140.56,169.43,140.61,169.75,140.61z"/>
						<path style = "fill:#1A1A1A;" d="M176.51,140.43h-0.01c-0.15,0.26-0.38,0.45-0.68,0.57s-0.61,0.18-0.92,0.18s-0.6-0.05-0.86-0.15
							c-0.26-0.1-0.49-0.24-0.68-0.43c-0.19-0.19-0.34-0.42-0.45-0.69s-0.16-0.58-0.16-0.93v-0.9c0-0.35,0.05-0.66,0.16-0.93
							s0.25-0.5,0.45-0.69s0.42-0.33,0.68-0.43c0.26-0.1,0.55-0.15,0.86-0.15c0.4,0,0.73,0.07,1,0.22s0.47,0.31,0.61,0.5v-2.69h0.68
							v7.18h-0.67V140.43z M173.43,138.9c0,0.55,0.14,0.98,0.41,1.27c0.27,0.3,0.64,0.45,1.09,0.45c0.22,0,0.42-0.03,0.62-0.08
							c0.19-0.05,0.35-0.14,0.49-0.25c0.14-0.11,0.25-0.25,0.33-0.42c0.08-0.17,0.12-0.37,0.12-0.59v-1.54
							c0-0.15-0.04-0.3-0.11-0.45c-0.08-0.15-0.19-0.28-0.33-0.41c-0.14-0.12-0.31-0.22-0.5-0.3s-0.4-0.11-0.63-0.11
							c-0.46,0-0.83,0.15-1.1,0.45c-0.27,0.3-0.4,0.72-0.4,1.27V138.9z"/>
						<path style = "fill:#1A1A1A;" d="M179.22,136.54h-0.92v-0.55h0.92v-0.65c0-0.28,0.03-0.51,0.09-0.7c0.06-0.19,0.15-0.34,0.26-0.45
							c0.12-0.11,0.26-0.2,0.44-0.25c0.17-0.05,0.37-0.08,0.6-0.08c0.15,0,0.31,0.01,0.49,0.03c0.18,0.02,0.32,0.05,0.42,0.09
							l-0.1,0.53c-0.24-0.06-0.49-0.09-0.76-0.09c-0.27,0-0.47,0.07-0.58,0.21c-0.12,0.14-0.17,0.38-0.17,0.73v0.62h1.49v0.55h-1.49
							v4.57h-0.68V136.54z"/>
					</g>
				</g>
			</g>
		</g>
	</g>
</g>
</svg>
