<svg width="60" height="28" viewBox="0 0 60 28" fill="none" xmlns="http://www.w3.org/2000/svg">
<path opacity="0.17" d="M56 0H4C1.79086 0 0 1.79086 0 4V24C0 26.2091 1.79086 28 4 28H56C58.2091 28 60 26.2091 60 24V4C60 1.79086 58.2091 0 56 0Z" fill="#69B7FF"/>
<path d="M21.892 7.36V8.76H20.394V10.706H21.976V12.106H12.764V10.706H14.346V8.76H12.848V7.36H21.892ZM16.488 15.396V14.416H11.406V12.988H23.334V14.416H18.252V15.396H16.488ZM17.412 18.084C17.3467 18.2147 17.188 18.3547 16.936 18.504C16.684 18.6533 16.3853 18.8167 16.04 18.994C15.816 19.106 15.5733 19.2227 15.312 19.344C15.0507 19.4653 14.7847 19.5867 14.514 19.708C14.2433 19.8293 13.9773 19.9413 13.716 20.044C13.464 20.1467 13.24 20.24 13.044 20.324L12.33 18.882C12.5727 18.7887 12.8387 18.6813 13.128 18.56C13.4173 18.448 13.7067 18.3267 13.996 18.196C14.2853 18.0747 14.5607 17.958 14.822 17.846C15.0927 17.7247 15.326 17.6127 15.522 17.51C15.858 17.342 16.1007 17.1553 16.25 16.95C16.4087 16.7447 16.488 16.4647 16.488 16.11V15.858H18.252V16.11C18.252 16.4647 18.3267 16.7447 18.476 16.95C18.6253 17.1553 18.868 17.342 19.204 17.51C19.4 17.6127 19.6287 17.7247 19.89 17.846C20.1607 17.958 20.4407 18.0747 20.73 18.196C21.0193 18.3267 21.3087 18.448 21.598 18.56C21.8873 18.6813 22.1533 18.7887 22.396 18.882L21.696 20.296C21.4907 20.212 21.262 20.1187 21.01 20.016C20.758 19.9133 20.4967 19.8013 20.226 19.68C19.9647 19.5587 19.6987 19.4373 19.428 19.316C19.1667 19.1947 18.924 19.078 18.7 18.966C18.3173 18.7793 18.0233 18.616 17.818 18.476C17.6127 18.3453 17.4773 18.2147 17.412 18.084ZM16.082 10.706H18.658V8.76H16.082V10.706ZM34.4802 14.052V17.762H28.0542V18.742H34.8722V20.142H26.3462V16.432H32.7722V15.452H26.2762V14.052H34.4802ZM34.4802 9.376H36.1882V10.916H34.4802V13.464H32.7162V6.996H34.4802V9.376ZM27.9982 11.182C27.9515 11.3033 27.8395 11.4527 27.6622 11.63C27.4942 11.8073 27.2889 11.994 27.0462 12.19C26.7475 12.4327 26.4395 12.6847 26.1222 12.946C25.8049 13.198 25.4362 13.4733 25.0162 13.772L23.9942 12.484C24.4235 12.1853 24.7922 11.9147 25.1002 11.672C25.4175 11.42 25.7349 11.1587 26.0522 10.888C26.4069 10.58 26.6589 10.2627 26.8082 9.936C26.9575 9.60933 27.0322 9.236 27.0322 8.816V7.318H28.8242V8.788C28.8242 9.012 28.8382 9.21267 28.8662 9.39C28.8942 9.56733 28.9455 9.73533 29.0202 9.894C29.0949 10.0433 29.1929 10.188 29.3142 10.328C29.4449 10.468 29.6082 10.6173 29.8042 10.776C29.9162 10.86 30.0469 10.958 30.1962 11.07C30.3549 11.182 30.5182 11.2987 30.6862 11.42C30.8542 11.5413 31.0269 11.6627 31.2042 11.784C31.3909 11.896 31.5682 12.008 31.7362 12.12L30.7562 13.338C30.1682 12.9553 29.5802 12.5447 28.9922 12.106C28.7122 11.8913 28.4882 11.714 28.3202 11.574C28.1615 11.4247 28.0589 11.294 28.0122 11.182H27.9982ZM37.4224 7.78H44.1424V9.278H41.7204V9.992C41.7204 10.16 41.7297 10.3187 41.7484 10.468C41.7764 10.608 41.823 10.7433 41.8884 10.874C41.963 10.9953 42.0564 11.1213 42.1684 11.252C42.2897 11.3827 42.4437 11.518 42.6304 11.658C42.929 11.882 43.2464 12.1107 43.5824 12.344C43.9184 12.5773 44.2637 12.806 44.6184 13.03L43.6804 14.276C43.055 13.8653 42.481 13.4687 41.9584 13.086C41.6597 12.8713 41.4217 12.6893 41.2444 12.54C41.067 12.3813 40.9644 12.2647 40.9364 12.19H40.9224C40.8944 12.274 40.787 12.4093 40.6004 12.596C40.4137 12.7733 40.157 12.988 39.8304 13.24C39.5317 13.4827 39.2237 13.7253 38.9064 13.968C38.5984 14.2013 38.267 14.4393 37.9124 14.682L36.8764 13.394C37.3244 13.0953 37.7444 12.792 38.1364 12.484C38.5377 12.176 38.8877 11.8913 39.1864 11.63C39.429 11.4153 39.6157 11.1773 39.7464 10.916C39.8864 10.6453 39.9564 10.3373 39.9564 9.992V9.278H37.4224V7.78ZM43.2604 20.408C42.6537 20.408 42.103 20.3473 41.6084 20.226C41.123 20.1047 40.703 19.932 40.3484 19.708C40.003 19.484 39.7324 19.218 39.5364 18.91C39.3497 18.602 39.2564 18.2613 39.2564 17.888V17.3C39.2564 16.9267 39.3497 16.586 39.5364 16.278C39.7324 15.97 40.003 15.704 40.3484 15.48C40.703 15.256 41.123 15.0833 41.6084 14.962C42.103 14.8407 42.6537 14.78 43.2604 14.78C43.8577 14.78 44.4037 14.8407 44.8984 14.962C45.393 15.0833 45.813 15.256 46.1584 15.48C46.513 15.704 46.7837 15.97 46.9704 16.278C47.1664 16.586 47.2644 16.9267 47.2644 17.3V17.888C47.2644 18.2613 47.1664 18.602 46.9704 18.91C46.7837 19.218 46.513 19.484 46.1584 19.708C45.813 19.932 45.393 20.1047 44.8984 20.226C44.4037 20.3473 43.8577 20.408 43.2604 20.408ZM47.2224 9.964H48.9304V11.504H47.2224V14.724H45.4584V6.996H47.2224V9.964ZM43.2604 16.222C42.9057 16.222 42.5884 16.2593 42.3084 16.334C42.0284 16.4087 41.7904 16.5067 41.5944 16.628C41.3984 16.74 41.249 16.866 41.1464 17.006C41.0437 17.146 40.9924 17.2813 40.9924 17.412V17.776C40.9924 17.9067 41.0437 18.042 41.1464 18.182C41.249 18.322 41.3984 18.448 41.5944 18.56C41.7904 18.6813 42.0284 18.7793 42.3084 18.854C42.5884 18.9287 42.9057 18.966 43.2604 18.966C43.615 18.966 43.9324 18.9287 44.2124 18.854C44.4924 18.7793 44.7304 18.6813 44.9264 18.56C45.1224 18.448 45.2717 18.322 45.3744 18.182C45.477 18.042 45.5284 17.9067 45.5284 17.776V17.412C45.5284 17.2813 45.477 17.146 45.3744 17.006C45.2717 16.866 45.1224 16.74 44.9264 16.628C44.7304 16.5067 44.4924 16.4087 44.2124 16.334C43.9324 16.2593 43.615 16.222 43.2604 16.222Z" fill="#69B7FF"/>
</svg>
